<svg id="svg" version="1.1" xmlns="http://www.w3.org/2000/svg" xmlns:xlink="http://www.w3.org/1999/xlink" width="400" height="400" viewBox="0, 0, 400,400"><g id="svgg"><path id="path0" d="M106.800 4.967 C 106.800 6.142,108.160 8.796,110.814 12.800 C 111.908 14.450,112.907 16.070,113.035 16.400 C 113.163 16.730,113.621 17.630,114.054 18.400 C 116.119 22.076,116.374 22.888,119.028 34.200 C 119.853 37.720,120.770 40.800,121.064 41.044 C 121.359 41.288,121.600 41.848,121.600 42.288 C 121.600 43.474,124.608 46.694,126.003 47.001 C 126.656 47.144,127.294 47.428,127.419 47.631 C 127.545 47.834,128.239 48.000,128.962 48.000 C 129.685 48.000,130.800 48.256,131.439 48.569 C 132.751 49.212,140.376 49.810,141.019 49.320 C 141.250 49.144,141.877 48.372,142.414 47.605 C 142.950 46.838,143.718 45.882,144.119 45.481 C 144.837 44.763,146.400 41.513,146.400 40.738 C 146.400 40.521,146.647 40.096,146.948 39.795 C 147.729 39.014,147.778 34.389,147.016 33.381 C 146.691 32.951,146.420 32.293,146.413 31.918 C 146.387 30.519,139.765 21.596,138.045 20.642 C 137.690 20.445,136.050 19.077,134.400 17.601 C 132.750 16.125,130.320 14.322,129.000 13.593 C 126.928 12.448,123.621 10.411,120.000 8.048 C 119.450 7.689,117.200 6.803,115.000 6.079 C 107.198 3.510,106.800 3.456,106.800 4.967 M208.700 32.032 C 207.940 32.475,207.756 33.802,208.400 34.200 C 208.620 34.336,208.800 34.790,208.800 35.208 C 208.800 35.626,209.132 36.291,209.538 36.684 C 209.944 37.078,210.541 37.940,210.865 38.600 C 211.188 39.260,211.638 40.160,211.864 40.600 C 216.270 49.162,218.393 56.073,218.406 61.896 C 218.409 63.383,218.634 64.998,218.906 65.485 C 219.178 65.972,219.932 67.383,220.583 68.621 C 223.523 74.210,228.262 75.856,233.334 73.049 C 236.296 71.410,237.019 70.988,238.901 69.799 C 239.945 69.140,240.799 68.460,240.799 68.288 C 240.800 68.116,241.439 67.414,242.220 66.728 C 246.029 63.384,245.854 56.726,241.839 52.238 C 241.268 51.599,240.800 50.928,240.800 50.748 C 240.800 50.568,240.215 50.118,239.500 49.749 C 238.785 49.379,238.020 48.869,237.800 48.616 C 237.168 47.887,234.732 46.186,233.200 45.404 C 232.430 45.011,231.209 44.174,230.486 43.545 C 229.763 42.915,228.953 42.397,228.686 42.393 C 228.175 42.385,225.396 40.665,223.453 39.153 C 221.594 37.708,216.634 34.400,216.325 34.400 C 216.168 34.400,214.996 33.770,213.720 33.001 C 211.355 31.575,209.950 31.304,208.700 32.032 M154.200 55.194 C 153.100 55.844,151.696 56.487,151.081 56.623 C 150.465 56.760,149.747 57.216,149.485 57.636 C 149.222 58.056,148.806 58.400,148.559 58.400 C 147.950 58.400,142.400 64.699,142.400 65.391 C 142.400 65.694,141.934 66.309,141.364 66.757 C 135.930 71.031,135.798 82.931,141.058 94.301 C 141.796 95.897,142.400 97.445,142.400 97.741 C 142.400 98.037,142.903 98.982,143.519 99.840 C 144.134 100.698,144.878 101.991,145.173 102.713 C 145.467 103.435,146.223 104.674,146.854 105.468 C 147.484 106.261,148.000 107.145,148.000 107.432 C 148.000 107.720,148.327 108.190,148.727 108.477 C 149.127 108.765,150.972 111.004,152.827 113.452 C 154.682 115.901,157.550 119.382,159.200 121.187 C 163.155 125.514,168.538 133.597,169.278 136.320 C 169.499 137.134,169.898 138.070,170.165 138.400 C 170.432 138.730,170.967 139.810,171.354 140.800 C 171.741 141.790,172.576 143.680,173.211 145.000 C 173.845 146.320,174.898 149.020,175.550 151.000 C 177.691 157.498,178.568 158.685,181.511 159.078 C 183.544 159.349,184.860 158.238,185.971 155.313 C 188.257 149.291,192.643 147.830,196.200 151.907 C 199.713 155.934,199.803 156.000,201.787 156.000 C 203.677 156.000,205.598 154.750,205.601 153.518 C 205.602 153.233,206.000 152.370,206.485 151.600 C 211.084 144.296,213.993 105.142,210.583 96.445 C 210.271 95.650,209.754 93.857,209.434 92.461 C 209.114 91.064,208.571 89.610,208.226 89.229 C 207.882 88.848,207.600 88.247,207.600 87.892 C 207.600 87.537,207.434 87.145,207.231 87.019 C 207.028 86.894,206.743 86.253,206.599 85.595 C 206.455 84.938,206.216 84.399,206.068 84.399 C 205.806 84.397,204.715 81.883,204.204 80.100 C 204.062 79.605,203.806 79.200,203.634 79.200 C 203.463 79.200,202.644 77.895,201.815 76.300 C 200.986 74.705,200.081 73.130,199.802 72.800 C 199.524 72.470,198.997 71.609,198.631 70.887 C 198.266 70.166,197.476 69.086,196.876 68.487 C 196.275 67.889,195.524 66.890,195.207 66.266 C 194.889 65.643,193.992 64.592,193.214 63.932 C 192.436 63.272,190.973 62.008,189.961 61.123 C 188.950 60.237,186.880 58.985,185.361 58.341 C 183.843 57.696,181.520 56.660,180.200 56.039 C 176.639 54.364,173.835 53.999,164.576 54.007 L 156.200 54.014 154.200 55.194 M47.043 58.233 C 46.587 59.421,46.799 64.745,47.411 67.475 C 49.187 75.402,51.396 83.180,52.443 85.200 C 52.843 85.970,53.627 87.625,54.186 88.877 C 54.744 90.129,55.390 91.270,55.621 91.413 C 56.221 91.784,60.800 97.643,60.800 98.040 C 60.800 98.307,64.359 100.789,66.676 102.140 C 67.831 102.813,70.600 101.873,72.281 100.236 C 73.206 99.336,74.861 97.727,75.959 96.659 C 79.499 93.218,80.862 87.585,79.038 83.926 C 78.467 82.781,78.000 81.497,78.000 81.074 C 78.000 79.024,70.657 70.000,68.989 70.000 C 68.725 70.000,67.334 69.145,65.897 68.100 C 63.136 66.092,61.537 65.074,59.227 63.853 C 58.450 63.442,56.654 62.143,55.236 60.967 C 51.749 58.072,47.632 56.698,47.043 58.233 M249.600 75.747 C 243.401 77.852,237.335 82.661,235.317 87.070 C 234.784 88.233,234.180 89.289,233.974 89.416 C 233.768 89.543,233.599 89.952,233.598 90.324 C 233.596 90.696,233.309 91.540,232.958 92.200 C 231.993 94.021,230.862 97.759,230.377 100.734 C 230.139 102.200,229.570 104.300,229.115 105.400 C 227.808 108.553,228.011 153.226,229.339 154.760 C 229.643 155.112,230.008 155.850,230.149 156.400 C 231.002 159.725,235.632 160.535,239.200 157.983 C 245.026 153.816,248.335 153.731,252.464 157.640 C 255.532 160.545,258.252 162.800,258.687 162.800 C 258.893 162.800,260.170 163.250,261.523 163.800 C 264.709 165.095,269.159 165.176,272.504 164.000 C 273.756 163.560,275.057 163.200,275.395 163.200 C 275.734 163.200,276.323 163.050,276.705 162.866 C 281.110 160.746,282.138 160.051,283.590 158.215 C 284.466 157.107,285.433 155.930,285.739 155.600 C 287.706 153.479,291.167 147.992,291.417 146.600 C 291.575 145.720,291.829 144.820,291.982 144.600 C 293.862 141.891,294.769 118.948,293.152 114.986 C 292.157 112.548,291.600 110.633,291.600 109.651 C 291.600 109.160,291.244 108.093,290.808 107.279 C 290.373 106.466,289.355 104.374,288.547 102.630 C 287.738 100.887,285.440 97.038,283.439 94.078 C 281.437 91.118,279.387 88.081,278.882 87.329 C 277.469 85.224,272.055 80.076,269.600 78.503 C 268.390 77.728,267.289 76.921,267.154 76.711 C 266.070 75.023,253.727 74.345,249.600 75.747 M93.400 100.987 C 93.180 101.054,91.957 101.341,90.681 101.623 C 89.406 101.906,88.270 102.286,88.158 102.468 C 88.045 102.651,87.684 102.800,87.354 102.800 C 86.569 102.800,83.317 104.288,83.007 104.788 C 82.875 105.003,82.174 105.460,81.450 105.803 C 80.132 106.429,77.600 109.555,77.600 110.558 C 77.600 110.852,77.195 111.607,76.700 112.236 C 75.079 114.297,75.377 119.848,77.290 123.247 C 78.109 124.702,79.342 127.582,80.030 129.647 C 80.718 131.711,81.528 133.679,81.830 134.020 C 82.132 134.361,82.821 136.161,83.360 138.020 C 83.899 139.879,84.714 142.270,85.170 143.333 C 85.627 144.396,86.000 145.589,86.000 145.983 C 86.000 146.378,86.450 147.718,87.000 148.962 C 87.550 150.205,88.000 151.399,88.000 151.615 C 88.000 152.033,90.831 158.733,92.557 162.400 C 93.126 163.610,93.594 165.022,93.596 165.538 C 93.598 166.054,93.857 166.954,94.170 167.538 C 94.484 168.122,95.212 170.561,95.788 172.957 C 96.364 175.354,97.097 177.689,97.417 178.146 C 97.738 178.604,98.000 179.442,98.000 180.010 C 98.000 184.268,104.482 187.073,108.483 184.547 C 112.052 182.294,117.225 182.527,121.400 185.127 C 122.500 185.812,123.940 186.674,124.600 187.043 C 125.260 187.411,126.309 188.137,126.931 188.656 C 127.553 189.175,128.291 189.600,128.571 189.600 C 128.851 189.600,129.932 190.053,130.973 190.606 C 135.440 192.981,141.967 192.730,147.050 189.988 C 150.913 187.904,152.986 187.688,154.607 189.200 C 156.413 190.885,159.600 195.075,159.600 195.765 C 159.600 196.618,161.281 197.367,162.504 197.060 C 163.522 196.804,163.874 195.859,165.362 189.400 C 166.406 184.865,165.849 170.804,164.419 165.600 C 164.207 164.830,163.737 162.940,163.373 161.400 C 163.009 159.860,162.012 156.709,161.156 154.398 C 160.300 152.087,159.600 150.000,159.600 149.760 C 159.600 149.038,158.304 146.623,157.732 146.280 C 157.440 146.104,157.200 145.714,157.200 145.413 C 157.200 144.466,155.660 141.471,154.211 139.600 C 153.444 138.610,152.517 137.260,152.152 136.600 C 151.513 135.443,150.362 133.928,148.203 131.400 C 146.229 129.088,144.400 126.722,144.387 126.462 C 144.366 126.048,141.074 122.563,140.321 122.158 C 139.948 121.956,137.896 120.174,135.762 118.196 C 132.052 114.758,131.093 114.004,128.136 112.200 C 127.415 111.760,125.514 110.492,123.912 109.382 C 120.086 106.730,112.827 103.200,111.200 103.200 C 110.814 103.200,110.274 102.930,110.000 102.600 C 109.688 102.223,108.807 102.000,107.635 102.000 C 106.608 102.000,104.731 101.730,103.465 101.400 C 101.483 100.884,94.644 100.603,93.400 100.987 M56.496 157.300 C 54.961 159.210,55.645 167.357,57.813 173.000 C 58.320 174.320,58.848 176.072,58.985 176.893 C 59.122 177.714,60.006 179.964,60.949 181.893 C 61.893 183.822,63.008 186.210,63.427 187.200 C 63.846 188.190,64.588 189.599,65.077 190.330 C 65.565 191.062,66.075 192.005,66.209 192.427 C 66.854 194.461,74.579 196.635,77.021 195.471 C 77.794 195.102,78.756 194.800,79.159 194.800 C 82.744 194.800,85.701 185.555,83.496 181.239 C 83.113 180.490,82.800 179.649,82.800 179.369 C 82.800 179.090,82.355 178.333,81.811 177.686 C 81.267 177.040,80.650 176.059,80.440 175.506 C 80.076 174.549,78.824 173.626,71.600 168.990 C 69.950 167.931,67.985 166.475,67.233 165.753 C 66.481 165.032,65.356 164.230,64.733 163.972 C 64.110 163.714,63.600 163.370,63.600 163.208 C 63.600 163.045,62.880 162.095,62.000 161.095 C 61.120 160.095,60.392 159.125,60.383 158.939 C 60.331 157.906,57.103 156.545,56.496 157.300 M307.400 165.601 C 306.080 165.991,304.460 166.600,303.800 166.953 C 303.140 167.306,302.310 167.596,301.956 167.598 C 301.602 167.599,300.649 168.050,299.838 168.600 C 299.028 169.150,298.268 169.600,298.151 169.600 C 297.725 169.600,290.056 174.451,289.585 175.018 C 289.319 175.338,288.824 175.600,288.485 175.600 C 288.145 175.600,285.970 176.613,283.651 177.852 C 281.332 179.090,278.977 180.247,278.417 180.422 C 277.858 180.597,276.410 181.131,275.200 181.608 C 269.229 183.964,267.845 184.200,260.000 184.199 L 252.600 184.199 248.600 182.224 C 244.378 180.140,241.922 178.679,240.600 177.466 C 239.175 176.159,231.648 173.200,229.747 173.200 C 229.461 173.200,228.636 172.951,227.914 172.647 C 217.225 168.149,200.243 170.090,191.836 176.771 C 190.986 177.447,190.180 178.001,190.045 178.002 C 189.502 178.005,178.800 188.738,178.800 189.278 C 178.800 189.599,178.350 190.283,177.800 190.800 C 177.250 191.317,176.800 191.941,176.800 192.188 C 176.800 192.435,176.174 193.799,175.409 195.219 C 174.644 196.638,174.014 198.113,174.009 198.496 C 174.004 198.880,173.478 200.410,172.840 201.896 C 172.203 203.383,171.465 205.950,171.201 207.600 C 170.936 209.250,170.470 211.500,170.165 212.600 C 169.579 214.714,169.011 219.892,168.388 228.800 C 168.181 231.770,167.835 235.100,167.620 236.200 C 167.404 237.300,167.125 239.432,166.999 240.938 C 166.873 242.444,166.492 244.424,166.153 245.338 C 165.814 246.252,165.233 248.080,164.863 249.400 C 164.492 250.720,164.077 251.980,163.941 252.200 C 163.804 252.420,163.209 253.860,162.618 255.400 C 162.028 256.940,160.567 260.155,159.372 262.545 C 158.177 264.934,157.200 267.162,157.200 267.496 C 157.200 267.829,156.678 269.204,156.039 270.551 C 154.762 273.245,153.600 276.739,153.600 277.886 C 153.600 278.291,153.340 278.993,153.022 279.447 C 152.704 279.901,152.064 282.582,151.599 285.405 C 151.134 288.228,150.607 290.822,150.428 291.169 C 149.067 293.803,149.210 308.309,150.619 310.600 C 150.889 311.040,151.338 312.120,151.615 313.000 C 154.059 320.759,164.914 324.079,176.400 320.581 C 180.528 319.324,199.283 318.848,202.800 319.912 C 209.543 321.951,217.135 328.332,218.612 333.200 C 218.779 333.750,219.324 334.740,219.824 335.400 C 220.948 336.884,221.929 340.581,222.228 344.461 C 222.353 346.077,222.615 348.300,222.812 349.400 C 223.008 350.500,223.272 353.110,223.399 355.200 C 223.526 357.290,223.892 360.890,224.213 363.200 C 224.535 365.510,224.983 368.930,225.210 370.800 C 226.122 378.334,227.108 383.642,227.706 384.240 C 227.868 384.401,228.000 384.931,228.000 385.417 C 228.000 387.160,231.341 393.421,233.191 395.146 C 235.181 397.002,236.435 397.224,238.000 396.000 C 238.550 395.570,239.163 395.214,239.362 395.209 C 240.169 395.189,242.400 393.107,242.400 392.374 C 242.400 391.942,242.556 391.277,242.747 390.895 C 244.024 388.343,246.686 378.794,247.179 375.000 C 247.919 369.302,247.932 369.113,248.603 353.327 C 249.072 342.319,250.865 335.082,254.235 330.605 C 258.715 324.653,264.355 324.098,265.431 329.504 C 265.574 330.222,265.850 330.907,266.045 331.028 C 266.240 331.149,266.400 331.748,266.400 332.360 C 266.400 335.185,267.944 339.574,269.485 341.131 C 273.814 345.503,278.337 342.584,278.983 335.000 C 279.133 333.240,279.502 330.900,279.802 329.800 C 280.309 327.945,280.843 325.236,281.578 320.800 C 282.450 315.534,287.605 303.262,289.643 301.600 C 289.778 301.490,290.187 300.817,290.553 300.104 C 290.918 299.391,291.708 298.496,292.308 298.115 C 294.375 296.805,296.601 294.992,300.113 291.759 C 302.049 289.976,304.120 288.266,304.716 287.959 C 306.338 287.122,310.872 282.181,311.950 280.075 C 312.253 279.484,312.760 278.702,313.078 278.338 C 313.396 277.974,313.912 276.823,314.226 275.781 C 314.539 274.740,314.960 273.688,315.161 273.444 C 316.436 271.896,318.593 264.047,319.790 256.600 C 320.513 252.103,321.829 245.968,322.580 243.600 C 322.894 242.610,323.347 240.475,323.586 238.857 C 323.825 237.238,324.394 234.808,324.849 233.457 C 325.305 232.105,325.831 230.190,326.019 229.200 C 326.483 226.749,326.934 224.869,328.133 220.383 C 330.033 213.279,330.633 202.148,329.435 196.200 C 328.429 191.200,325.628 180.815,325.038 179.896 C 324.722 179.403,324.162 178.010,323.793 176.800 C 322.974 174.108,322.086 172.193,320.900 170.562 C 320.405 169.881,320.000 169.141,320.000 168.917 C 320.000 168.299,317.159 166.459,314.847 165.581 C 312.387 164.646,310.609 164.651,307.400 165.601 M108.200 201.808 C 105.501 202.919,103.355 203.034,101.000 202.194 C 97.021 200.773,96.321 200.892,94.157 203.358 C 93.081 204.586,92.008 205.592,91.774 205.595 C 91.307 205.600,88.800 208.289,88.800 208.784 C 88.800 208.952,88.284 209.739,87.654 210.532 C 87.024 211.325,85.809 213.375,84.954 215.087 L 83.400 218.200 83.417 223.800 C 83.434 229.228,84.013 232.354,85.266 233.780 C 85.450 233.989,85.600 234.384,85.600 234.657 C 85.600 235.422,88.764 241.872,89.398 242.398 C 89.706 242.654,90.176 243.525,90.440 244.332 C 90.705 245.139,91.163 246.172,91.458 246.626 C 92.228 247.810,93.600 253.431,93.600 255.400 C 93.600 257.166,94.915 264.032,95.707 266.400 C 97.690 272.331,102.830 274.023,106.639 270.000 C 107.680 268.900,108.752 268.000,109.020 268.000 C 109.289 268.000,109.803 267.550,110.164 266.999 C 111.326 265.225,113.768 263.886,115.247 264.210 C 117.560 264.718,121.416 269.226,122.235 272.379 C 122.609 273.821,123.159 275.399,123.458 275.886 C 123.756 276.373,124.000 277.133,124.000 277.575 C 124.000 278.016,124.475 279.417,125.056 280.689 C 125.872 282.474,126.101 283.576,126.065 285.534 C 125.997 289.221,127.064 291.200,129.119 291.200 C 131.947 291.200,134.555 287.906,133.584 285.562 C 133.085 284.356,134.240 278.341,135.424 275.983 C 135.705 275.424,136.133 273.804,136.374 272.383 C 136.918 269.190,137.952 265.677,138.437 265.377 C 138.637 265.254,138.800 264.751,138.800 264.261 C 138.800 263.770,139.430 262.160,140.200 260.683 C 140.970 259.207,141.600 257.757,141.600 257.461 C 141.600 257.166,141.960 256.598,142.400 256.200 C 142.840 255.802,143.199 255.279,143.197 255.038 C 143.194 254.596,144.332 251.599,147.011 245.000 C 147.815 243.020,148.652 240.770,148.870 240.000 C 149.089 239.230,149.459 237.932,149.692 237.116 C 149.948 236.224,150.000 234.630,149.823 233.116 C 149.662 231.732,149.309 228.170,149.039 225.200 C 148.770 222.230,148.335 219.407,148.075 218.926 C 147.814 218.446,147.598 217.456,147.596 216.726 C 147.578 210.565,141.974 206.596,132.800 206.249 C 128.244 206.076,124.700 205.405,123.444 204.476 C 122.644 203.886,117.756 201.969,115.555 201.383 C 112.534 200.579,110.962 200.670,108.200 201.808 M341.429 226.028 C 340.349 226.977,339.796 228.029,338.860 230.918 C 338.204 232.943,337.393 235.410,337.057 236.400 C 335.796 240.117,334.789 243.901,334.236 247.000 C 333.922 248.760,333.471 250.829,333.233 251.597 C 332.291 254.638,332.679 262.594,333.836 263.969 C 336.715 267.391,348.887 260.930,350.796 254.965 C 351.072 254.104,351.680 252.770,352.149 252.000 C 353.639 249.549,353.358 238.663,351.720 235.400 C 351.057 234.080,350.400 232.550,350.258 232.000 C 349.937 230.750,345.379 225.944,343.903 225.299 C 342.912 224.866,342.672 224.937,341.429 226.028 " stroke="none" fill="#04fb5b" fill-rule="evenodd"></path><path id="path1" d="M105.782 2.502 C 105.552 2.776,105.223 3.232,105.049 3.515 C 104.704 4.079,105.919 8.400,106.423 8.400 C 106.595 8.400,106.852 8.925,106.993 9.567 C 107.134 10.208,107.508 10.833,107.824 10.954 C 108.141 11.076,108.400 11.451,108.400 11.787 C 108.400 12.124,108.568 12.400,108.773 12.400 C 108.978 12.400,109.272 12.805,109.427 13.300 C 109.581 13.795,109.819 14.290,109.954 14.400 C 110.563 14.895,112.723 18.298,113.000 19.200 C 113.169 19.750,113.431 20.290,113.581 20.400 C 114.065 20.754,115.200 23.984,115.200 25.008 C 115.200 25.554,115.362 26.000,115.561 26.000 C 115.759 26.000,116.047 27.080,116.200 28.400 C 116.353 29.720,116.618 30.800,116.788 30.800 C 116.958 30.800,117.218 31.875,117.367 33.188 C 117.515 34.501,117.798 35.675,117.995 35.797 C 118.192 35.919,118.477 36.869,118.627 37.909 C 118.778 38.949,119.037 39.980,119.204 40.200 C 119.371 40.420,119.633 41.185,119.786 41.900 C 119.938 42.615,120.229 43.200,120.432 43.200 C 120.634 43.200,120.800 43.457,120.800 43.771 C 120.800 44.086,121.025 44.588,121.300 44.888 C 121.575 45.188,121.992 45.774,122.227 46.190 C 122.461 46.606,123.001 47.139,123.427 47.373 C 123.852 47.608,124.290 47.908,124.400 48.041 C 124.974 48.731,129.874 50.000,131.968 50.000 C 133.269 50.000,134.393 50.157,134.467 50.349 C 134.540 50.541,135.981 50.825,137.669 50.980 L 140.738 51.262 142.721 49.331 C 143.812 48.269,144.828 46.995,144.979 46.500 C 145.130 46.005,145.422 45.600,145.627 45.600 C 145.832 45.600,146.000 45.324,146.000 44.987 C 146.000 44.651,146.249 44.279,146.553 44.163 C 146.857 44.046,147.219 43.242,147.358 42.375 C 147.496 41.509,147.759 40.800,147.941 40.800 C 148.455 40.800,149.320 37.804,149.352 35.908 C 149.381 34.272,148.501 31.600,147.934 31.600 C 147.785 31.600,147.545 31.060,147.400 30.400 C 147.255 29.740,146.966 29.200,146.758 29.200 C 146.550 29.200,146.205 28.795,145.991 28.300 C 145.405 26.944,144.698 25.902,143.700 24.922 C 143.205 24.436,142.800 23.881,142.800 23.689 C 142.800 23.268,138.238 18.800,137.808 18.800 C 137.703 18.800,136.668 17.836,135.508 16.658 C 134.349 15.480,132.995 14.388,132.500 14.231 C 132.005 14.074,131.600 13.778,131.600 13.573 C 131.600 13.368,131.418 13.200,131.197 13.200 C 130.975 13.200,130.048 12.660,129.137 12.000 C 128.225 11.340,127.325 10.800,127.137 10.800 C 126.948 10.800,126.048 10.260,125.137 9.600 C 124.225 8.940,123.237 8.400,122.940 8.400 C 122.643 8.400,122.400 8.220,122.400 8.000 C 122.400 7.780,122.124 7.600,121.787 7.600 C 121.451 7.600,121.076 7.341,120.954 7.024 C 120.833 6.708,120.208 6.334,119.567 6.193 C 118.925 6.052,118.400 5.794,118.400 5.619 C 118.400 5.445,117.680 5.187,116.800 5.046 C 115.920 4.906,115.200 4.613,115.200 4.395 C 115.200 4.178,114.696 4.000,114.080 4.000 C 113.464 4.000,112.789 3.845,112.580 3.656 C 112.371 3.467,111.210 3.113,110.000 2.868 C 108.790 2.623,107.440 2.329,107.000 2.214 C 106.560 2.099,106.012 2.228,105.782 2.502 M109.772 4.381 C 114.871 5.962,119.157 7.498,120.000 8.048 C 123.621 10.411,126.928 12.448,129.000 13.593 C 130.320 14.322,132.750 16.125,134.400 17.601 C 136.050 19.077,137.690 20.445,138.045 20.642 C 139.765 21.596,146.387 30.519,146.413 31.918 C 146.420 32.293,146.691 32.951,147.016 33.381 C 147.778 34.389,147.729 39.014,146.948 39.795 C 146.647 40.096,146.400 40.521,146.400 40.738 C 146.400 41.513,144.837 44.763,144.119 45.481 C 143.718 45.882,142.950 46.838,142.414 47.605 C 141.877 48.372,141.250 49.144,141.019 49.320 C 140.376 49.810,132.751 49.212,131.439 48.569 C 130.800 48.256,129.685 48.000,128.962 48.000 C 128.239 48.000,127.545 47.834,127.419 47.631 C 127.294 47.428,126.656 47.144,126.003 47.001 C 124.608 46.694,121.600 43.474,121.600 42.288 C 121.600 41.848,121.359 41.288,121.064 41.044 C 120.770 40.800,119.853 37.720,119.028 34.200 C 116.374 22.888,116.119 22.076,114.054 18.400 C 113.621 17.630,113.163 16.730,113.035 16.400 C 112.907 16.070,111.908 14.450,110.814 12.800 C 105.805 5.243,105.536 3.068,109.772 4.381 M206.500 30.998 C 205.958 31.614,205.812 33.850,206.300 34.067 C 206.465 34.140,206.960 34.920,207.399 35.800 C 207.839 36.680,208.424 37.638,208.699 37.929 C 208.975 38.219,209.200 38.714,209.200 39.029 C 209.200 39.343,209.366 39.600,209.568 39.600 C 209.771 39.600,210.055 40.140,210.200 40.800 C 210.345 41.460,210.615 42.000,210.800 42.000 C 210.985 42.000,211.255 42.540,211.400 43.200 C 211.545 43.860,211.815 44.400,212.000 44.400 C 212.185 44.400,212.455 44.940,212.600 45.600 C 212.745 46.260,213.021 46.800,213.214 46.800 C 213.406 46.800,213.682 47.430,213.826 48.200 C 213.971 48.970,214.229 49.600,214.400 49.600 C 214.571 49.600,214.837 50.275,214.991 51.100 C 215.145 51.925,215.411 52.780,215.581 53.000 C 216.027 53.577,216.512 55.578,216.599 57.200 C 216.834 61.582,217.364 66.000,217.655 66.000 C 217.840 66.000,218.106 66.720,218.246 67.600 C 218.387 68.480,218.659 69.200,218.851 69.200 C 219.043 69.200,219.200 69.476,219.200 69.813 C 219.200 70.149,219.463 70.526,219.785 70.650 C 220.106 70.773,220.491 71.255,220.639 71.722 C 221.024 72.934,222.917 74.714,224.153 75.024 C 224.733 75.169,225.306 75.449,225.427 75.644 C 225.720 76.117,229.026 76.101,229.905 75.622 C 230.287 75.414,231.275 75.136,232.100 75.004 C 232.925 74.872,233.600 74.592,233.600 74.382 C 233.600 74.172,233.798 74.000,234.040 74.000 C 234.783 74.000,237.381 72.674,237.720 72.122 C 237.896 71.835,238.235 71.600,238.474 71.600 C 238.713 71.600,239.325 71.150,239.835 70.600 C 240.345 70.050,240.935 69.600,241.147 69.600 C 242.445 69.600,246.000 64.794,246.000 63.040 C 246.000 62.688,246.180 62.400,246.400 62.400 C 246.620 62.400,246.800 61.410,246.800 60.200 C 246.800 58.990,246.628 58.000,246.418 58.000 C 246.208 58.000,245.918 57.370,245.774 56.600 C 245.629 55.830,245.371 55.200,245.199 55.200 C 245.027 55.200,244.768 54.725,244.622 54.145 C 244.220 52.543,240.173 47.600,239.264 47.600 C 239.094 47.600,238.373 47.118,237.662 46.529 C 236.317 45.416,235.738 45.059,232.900 43.602 C 231.965 43.122,231.200 42.565,231.200 42.364 C 231.200 42.164,230.924 42.000,230.587 42.000 C 230.251 42.000,229.871 41.730,229.745 41.400 C 229.618 41.070,229.277 40.800,228.986 40.800 C 228.695 40.800,228.211 40.554,227.910 40.253 C 227.609 39.952,226.966 39.580,226.481 39.426 C 225.997 39.272,225.600 38.978,225.600 38.773 C 225.600 38.568,225.349 38.400,225.043 38.400 C 224.736 38.400,224.382 38.130,224.255 37.800 C 224.129 37.470,223.749 37.200,223.413 37.200 C 223.076 37.200,222.800 37.040,222.800 36.843 C 222.800 36.647,222.350 36.374,221.800 36.236 C 221.250 36.098,220.800 35.804,220.800 35.582 C 220.800 35.361,220.395 35.005,219.900 34.791 C 218.811 34.320,217.626 33.576,216.888 32.900 C 216.588 32.625,216.086 32.400,215.771 32.400 C 215.457 32.400,215.200 32.234,215.200 32.032 C 215.200 31.829,214.660 31.545,214.000 31.400 C 213.340 31.255,212.800 30.971,212.800 30.768 C 212.800 30.143,207.068 30.353,206.500 30.998 M213.720 33.001 C 214.996 33.770,216.168 34.400,216.325 34.400 C 216.634 34.400,221.594 37.708,223.453 39.153 C 225.396 40.665,228.175 42.385,228.686 42.393 C 228.953 42.397,229.763 42.915,230.486 43.545 C 231.209 44.174,232.430 45.011,233.200 45.404 C 234.732 46.186,237.168 47.887,237.800 48.616 C 238.020 48.869,238.785 49.379,239.500 49.749 C 240.215 50.118,240.800 50.568,240.800 50.748 C 240.800 50.928,241.268 51.599,241.839 52.238 C 245.854 56.726,246.029 63.384,242.220 66.728 C 241.439 67.414,240.800 68.116,240.799 68.288 C 240.799 68.460,239.945 69.140,238.901 69.799 C 237.019 70.988,236.296 71.410,233.334 73.049 C 228.262 75.856,223.523 74.210,220.583 68.621 C 219.932 67.383,219.178 65.972,218.906 65.485 C 218.634 64.998,218.409 63.383,218.406 61.896 C 218.393 56.073,216.270 49.162,211.864 40.600 C 211.638 40.160,211.188 39.260,210.865 38.600 C 210.541 37.940,209.944 37.078,209.538 36.684 C 209.132 36.291,208.800 35.626,208.800 35.208 C 208.800 34.790,208.620 34.336,208.400 34.200 C 207.756 33.802,207.940 32.475,208.700 32.032 C 209.950 31.304,211.355 31.575,213.720 33.001 M157.200 52.787 C 157.200 53.014,156.612 53.200,155.894 53.200 C 155.175 53.200,153.780 53.657,152.794 54.216 C 151.807 54.775,150.685 55.336,150.300 55.463 C 149.915 55.590,149.600 55.852,149.600 56.047 C 149.600 56.241,149.328 56.400,148.996 56.400 C 148.664 56.400,148.084 56.760,147.707 57.200 C 147.330 57.640,146.837 58.003,146.611 58.007 C 146.247 58.012,145.282 59.012,142.100 62.679 C 141.605 63.250,141.200 63.895,141.200 64.113 C 141.200 64.330,140.785 64.893,140.278 65.363 C 139.087 66.467,136.800 71.159,136.800 72.498 C 136.800 73.068,136.575 73.608,136.300 73.700 C 135.584 73.939,135.584 85.261,136.300 85.500 C 136.575 85.592,136.801 86.147,136.802 86.733 C 136.804 87.320,137.046 88.262,137.341 88.827 C 137.635 89.391,138.008 90.376,138.168 91.014 C 138.515 92.399,140.409 96.516,140.830 96.801 C 140.993 96.911,141.253 97.676,141.408 98.501 C 141.562 99.325,141.835 100.000,142.013 100.000 C 142.191 100.000,142.455 100.540,142.600 101.200 C 142.745 101.860,143.029 102.400,143.232 102.400 C 143.434 102.400,143.600 102.676,143.600 103.013 C 143.600 103.349,143.859 103.724,144.176 103.846 C 144.492 103.967,144.866 104.592,145.007 105.233 C 145.148 105.875,145.417 106.400,145.605 106.400 C 145.793 106.400,146.073 106.805,146.229 107.300 C 146.384 107.795,146.936 108.596,147.456 109.081 C 147.975 109.565,148.400 110.074,148.400 110.212 C 148.400 110.349,148.940 111.002,149.600 111.662 C 150.260 112.322,150.800 113.036,150.800 113.250 C 150.800 113.463,151.250 114.055,151.800 114.565 C 152.350 115.075,152.800 115.659,152.800 115.863 C 152.800 116.067,153.610 117.028,154.600 118.000 C 155.590 118.972,156.400 119.912,156.400 120.090 C 156.400 120.268,157.210 121.190,158.200 122.138 C 159.190 123.087,160.000 124.074,160.000 124.331 C 160.000 124.589,160.135 124.801,160.300 124.803 C 160.465 124.804,161.046 125.479,161.592 126.303 C 162.137 127.126,162.985 128.190,163.475 128.666 C 163.966 129.142,164.484 129.997,164.627 130.566 C 164.770 131.135,165.002 131.602,165.143 131.605 C 165.285 131.607,165.744 132.327,166.164 133.205 C 166.585 134.082,167.080 134.800,167.264 134.800 C 167.449 134.800,167.601 135.025,167.602 135.300 C 167.604 135.575,167.857 136.283,168.165 136.873 C 168.473 137.463,168.846 138.498,168.994 139.173 C 169.142 139.848,169.415 140.400,169.600 140.400 C 169.785 140.400,170.055 140.940,170.200 141.600 C 170.345 142.260,170.629 142.800,170.832 142.800 C 171.034 142.800,171.201 143.115,171.202 143.500 C 171.204 144.228,172.892 148.625,173.343 149.076 C 173.484 149.217,173.600 149.663,173.600 150.067 C 173.600 150.470,173.760 150.800,173.955 150.800 C 174.150 150.800,174.431 151.610,174.579 152.600 C 174.728 153.590,174.994 154.400,175.172 154.400 C 175.350 154.400,175.597 155.024,175.720 155.788 C 176.544 160.863,186.400 162.572,186.400 157.640 C 186.400 157.178,186.560 156.800,186.755 156.800 C 186.951 156.800,187.229 156.170,187.374 155.400 C 187.518 154.630,187.805 154.000,188.011 154.000 C 188.216 154.000,188.498 153.548,188.637 152.997 C 188.789 152.388,189.265 151.899,189.844 151.753 C 190.370 151.621,190.800 151.353,190.800 151.157 C 190.800 150.960,191.250 150.800,191.800 150.800 C 192.350 150.800,192.800 150.980,192.800 151.200 C 192.800 151.420,193.042 151.600,193.338 151.600 C 193.813 151.600,195.567 153.351,197.696 155.950 C 198.079 156.418,198.664 156.800,198.996 156.800 C 199.328 156.800,199.600 156.980,199.600 157.200 C 199.600 157.422,200.665 157.600,201.995 157.600 C 204.654 157.600,206.000 156.845,206.000 155.354 C 206.000 154.876,206.270 154.382,206.600 154.255 C 206.930 154.129,207.200 153.749,207.200 153.413 C 207.200 153.076,207.351 152.800,207.536 152.800 C 207.721 152.800,208.109 152.035,208.399 151.100 C 208.689 150.165,209.170 148.998,209.469 148.506 C 209.767 148.014,210.124 146.529,210.263 145.206 C 210.401 143.883,210.649 142.800,210.815 142.800 C 210.980 142.800,211.243 141.180,211.400 139.200 C 211.557 137.220,211.823 135.600,211.991 135.600 C 212.160 135.600,212.428 132.720,212.588 129.200 C 212.747 125.679,213.040 122.699,213.239 122.576 C 213.699 122.292,213.717 106.119,213.258 105.836 C 213.069 105.719,212.787 103.597,212.630 101.120 C 212.474 98.643,212.201 96.433,212.025 96.208 C 211.849 95.984,211.584 95.133,211.437 94.317 C 211.290 93.501,210.908 92.331,210.588 91.717 C 210.267 91.103,210.004 90.195,210.002 89.700 C 210.001 89.205,209.840 88.800,209.643 88.800 C 209.447 88.800,209.167 88.305,209.021 87.700 C 208.649 86.159,207.856 84.400,207.534 84.400 C 207.385 84.400,207.145 83.860,207.000 83.200 C 206.855 82.540,206.585 82.000,206.400 82.000 C 206.215 82.000,205.945 81.460,205.800 80.800 C 205.655 80.140,205.392 79.600,205.215 79.600 C 204.896 79.600,204.274 78.077,204.357 77.500 C 204.381 77.335,204.220 77.200,204.000 77.200 C 203.780 77.200,203.600 76.952,203.600 76.649 C 203.600 76.346,203.342 75.883,203.026 75.621 C 202.710 75.359,202.336 74.617,202.194 73.972 C 202.052 73.328,201.792 72.800,201.615 72.800 C 201.438 72.800,201.188 72.485,201.058 72.100 C 200.724 71.104,199.885 69.855,199.300 69.480 C 199.025 69.304,198.800 68.965,198.800 68.726 C 198.800 68.487,198.371 67.894,197.847 67.408 C 197.323 66.922,196.776 66.153,196.632 65.699 C 196.487 65.245,196.106 64.773,195.785 64.650 C 195.463 64.526,195.200 64.149,195.200 63.813 C 195.200 63.476,195.058 63.200,194.885 63.200 C 194.711 63.200,193.620 62.309,192.459 61.219 C 191.299 60.129,190.001 59.127,189.575 58.992 C 189.149 58.857,188.800 58.593,188.800 58.405 C 188.800 58.217,188.260 57.945,187.600 57.800 C 186.940 57.655,186.400 57.387,186.400 57.203 C 186.400 57.020,185.680 56.749,184.800 56.600 C 183.920 56.451,183.200 56.180,183.200 55.997 C 183.200 55.813,182.660 55.545,182.000 55.400 C 181.340 55.255,180.800 54.971,180.800 54.768 C 180.800 54.566,180.551 54.400,180.246 54.400 C 179.941 54.400,179.176 54.131,178.546 53.802 C 177.864 53.447,176.315 53.204,174.724 53.202 C 173.252 53.201,171.945 53.034,171.820 52.832 C 171.494 52.306,157.200 52.261,157.200 52.787 M175.376 54.455 C 176.709 54.705,178.880 55.418,180.200 56.039 C 181.520 56.660,183.843 57.696,185.361 58.341 C 186.880 58.985,188.950 60.237,189.961 61.123 C 190.973 62.008,192.436 63.272,193.214 63.932 C 193.992 64.592,194.889 65.643,195.207 66.266 C 195.524 66.890,196.275 67.889,196.876 68.487 C 197.476 69.086,198.266 70.166,198.631 70.887 C 198.997 71.609,199.524 72.470,199.802 72.800 C 200.081 73.130,200.986 74.705,201.815 76.300 C 202.644 77.895,203.463 79.200,203.634 79.200 C 203.806 79.200,204.062 79.605,204.204 80.100 C 204.715 81.883,205.806 84.397,206.068 84.399 C 206.216 84.399,206.455 84.938,206.599 85.595 C 206.743 86.253,207.028 86.894,207.231 87.019 C 207.434 87.145,207.600 87.537,207.600 87.892 C 207.600 88.247,207.882 88.848,208.226 89.229 C 208.571 89.610,209.114 91.064,209.434 92.461 C 209.754 93.857,210.271 95.650,210.583 96.445 C 213.993 105.142,211.084 144.296,206.485 151.600 C 206.000 152.370,205.602 153.233,205.601 153.518 C 205.598 154.750,203.677 156.000,201.787 156.000 C 199.803 156.000,199.713 155.934,196.200 151.907 C 192.643 147.830,188.257 149.291,185.971 155.313 C 184.860 158.238,183.544 159.349,181.511 159.078 C 178.568 158.685,177.691 157.498,175.550 151.000 C 174.898 149.020,173.845 146.320,173.211 145.000 C 172.576 143.680,171.741 141.790,171.354 140.800 C 170.967 139.810,170.432 138.730,170.165 138.400 C 169.898 138.070,169.499 137.134,169.278 136.320 C 168.538 133.597,163.155 125.514,159.200 121.187 C 157.550 119.382,154.682 115.901,152.827 113.452 C 150.972 111.004,149.127 108.765,148.727 108.477 C 148.327 108.190,148.000 107.720,148.000 107.432 C 148.000 107.145,147.484 106.261,146.854 105.468 C 146.223 104.674,145.467 103.435,145.173 102.713 C 144.878 101.991,144.134 100.698,143.519 99.840 C 142.903 98.982,142.400 98.037,142.400 97.741 C 142.400 97.445,141.796 95.897,141.058 94.301 C 135.798 82.931,135.930 71.031,141.364 66.757 C 141.934 66.309,142.400 65.694,142.400 65.391 C 142.400 64.699,147.950 58.400,148.559 58.400 C 148.806 58.400,149.222 58.056,149.485 57.636 C 149.747 57.216,150.465 56.760,151.081 56.623 C 151.696 56.487,153.100 55.844,154.200 55.194 L 156.200 54.014 164.576 54.007 C 169.183 54.003,174.043 54.205,175.376 54.455 M45.824 57.034 C 45.171 57.686,45.122 58.212,45.366 61.982 C 45.517 64.302,45.642 66.511,45.645 66.892 C 45.648 67.273,45.819 67.688,46.025 67.816 C 46.231 67.943,46.400 68.476,46.400 69.000 C 46.400 69.524,46.554 70.048,46.742 70.164 C 46.930 70.280,47.200 71.487,47.342 72.847 C 47.484 74.206,47.780 75.535,48.000 75.799 C 48.219 76.064,48.514 77.118,48.654 78.140 C 48.794 79.163,49.040 80.000,49.200 80.000 C 49.360 80.000,49.597 80.773,49.727 81.718 C 49.856 82.663,50.240 83.968,50.579 84.618 C 50.918 85.268,51.196 86.025,51.198 86.300 C 51.199 86.575,51.380 86.800,51.600 86.800 C 51.820 86.800,52.000 87.250,52.000 87.800 C 52.000 88.350,52.162 88.800,52.361 88.800 C 52.559 88.800,52.900 89.295,53.117 89.900 C 53.335 90.505,53.893 91.397,54.357 91.883 C 54.820 92.369,55.200 92.929,55.200 93.127 C 55.200 93.326,55.785 94.120,56.500 94.892 C 57.215 95.665,58.070 96.699,58.400 97.192 C 59.332 98.581,62.543 101.590,63.100 101.595 C 63.375 101.598,63.600 101.777,63.600 101.992 C 63.600 102.208,64.050 102.498,64.600 102.636 C 65.150 102.774,65.600 103.047,65.600 103.243 C 65.600 103.440,66.770 103.600,68.200 103.600 C 69.667 103.600,70.800 103.426,70.800 103.200 C 70.800 102.980,71.072 102.800,71.404 102.800 C 72.237 102.800,79.599 95.333,79.602 94.486 C 79.604 94.109,79.874 93.284,80.202 92.654 C 80.880 91.354,81.072 83.200,80.425 83.200 C 80.218 83.200,79.928 82.390,79.779 81.400 C 79.631 80.410,79.382 79.600,79.225 79.600 C 78.901 79.600,77.200 76.324,77.200 75.699 C 77.200 75.472,76.930 75.182,76.600 75.055 C 76.270 74.929,75.998 74.594,75.996 74.313 C 75.994 74.031,75.257 73.170,74.358 72.400 C 73.459 71.630,72.264 70.595,71.703 70.100 C 71.142 69.605,70.439 69.200,70.142 69.200 C 69.844 69.200,69.600 69.020,69.600 68.800 C 69.600 68.580,69.413 68.400,69.184 68.400 C 68.790 68.400,66.430 66.883,66.000 66.354 C 65.890 66.219,65.395 65.981,64.900 65.827 C 64.405 65.672,64.000 65.378,64.000 65.173 C 64.000 64.968,63.739 64.800,63.420 64.800 C 63.101 64.800,62.696 64.561,62.520 64.270 C 62.344 63.978,61.930 63.619,61.600 63.472 C 60.566 63.012,59.484 62.233,58.580 61.300 C 58.101 60.805,57.544 60.400,57.343 60.400 C 57.142 60.400,56.670 60.040,56.293 59.600 C 55.916 59.160,55.336 58.800,55.004 58.800 C 54.672 58.800,54.400 58.620,54.400 58.400 C 54.400 58.180,54.143 58.000,53.829 58.000 C 53.514 58.000,52.962 57.705,52.602 57.345 C 51.567 56.309,46.768 56.089,45.824 57.034 M50.858 58.214 C 51.848 58.551,53.819 59.790,55.236 60.967 C 56.654 62.143,58.450 63.442,59.227 63.853 C 61.537 65.074,63.136 66.092,65.897 68.100 C 67.334 69.145,68.725 70.000,68.989 70.000 C 70.657 70.000,78.000 79.024,78.000 81.074 C 78.000 81.497,78.467 82.781,79.038 83.926 C 80.862 87.585,79.499 93.218,75.959 96.659 C 74.861 97.727,73.206 99.336,72.281 100.236 C 70.600 101.873,67.831 102.813,66.676 102.140 C 64.359 100.789,60.800 98.307,60.800 98.040 C 60.800 97.643,56.221 91.784,55.621 91.413 C 55.390 91.270,54.744 90.129,54.186 88.877 C 53.627 87.625,52.843 85.970,52.443 85.200 C 51.396 83.180,49.187 75.402,47.411 67.475 C 46.799 64.745,46.587 59.421,47.043 58.233 C 47.349 57.435,48.557 57.429,50.858 58.214 M250.900 73.871 C 249.965 73.967,249.200 74.200,249.200 74.388 C 249.200 74.576,248.480 74.851,247.600 75.000 C 246.720 75.149,246.000 75.420,246.000 75.603 C 246.000 75.787,245.460 76.055,244.800 76.200 C 244.140 76.345,243.600 76.610,243.600 76.788 C 243.600 76.967,243.190 77.216,242.688 77.342 C 242.187 77.468,241.152 78.103,240.388 78.753 C 237.071 81.576,236.400 82.208,236.400 82.512 C 236.400 82.689,236.025 83.231,235.567 83.717 C 235.109 84.203,234.415 85.230,234.024 86.000 C 233.633 86.770,233.019 87.940,232.659 88.600 C 232.299 89.260,232.004 90.115,232.002 90.500 C 232.001 90.885,231.840 91.200,231.645 91.200 C 231.450 91.200,231.170 92.006,231.022 92.991 C 230.875 93.976,230.605 94.873,230.423 94.986 C 230.241 95.098,229.971 95.998,229.823 96.986 C 229.675 97.973,229.397 98.878,229.205 98.997 C 229.013 99.116,228.731 100.245,228.579 101.506 C 228.426 102.768,228.162 103.980,227.991 104.200 C 227.820 104.420,227.551 106.178,227.393 108.106 C 227.234 110.034,226.946 111.710,226.752 111.830 C 226.169 112.190,226.309 128.949,226.900 129.540 C 227.274 129.914,227.428 133.230,227.511 142.703 C 227.572 149.668,227.773 155.464,227.957 155.583 C 228.141 155.702,228.432 156.250,228.603 156.800 C 230.025 161.380,237.430 162.490,240.983 158.657 C 241.521 158.075,242.150 157.600,242.381 157.600 C 242.611 157.600,242.800 157.423,242.800 157.208 C 242.800 156.992,243.250 156.702,243.800 156.564 C 244.350 156.426,244.800 156.153,244.800 155.957 C 244.800 155.760,245.340 155.600,246.000 155.600 C 246.660 155.600,247.200 155.760,247.200 155.957 C 247.200 156.153,247.672 156.432,248.249 156.577 C 248.826 156.721,250.180 157.731,251.258 158.820 C 252.335 159.909,253.379 160.800,253.578 160.800 C 253.776 160.800,254.447 161.305,255.069 161.923 C 255.691 162.541,256.515 163.165,256.900 163.311 C 257.285 163.456,257.600 163.738,257.600 163.936 C 257.600 164.135,258.305 164.410,259.166 164.548 C 260.028 164.686,260.808 165.024,260.900 165.299 C 261.121 165.962,273.104 165.998,273.522 165.337 C 273.675 165.096,274.580 164.768,275.533 164.608 C 276.486 164.449,277.746 164.068,278.333 163.762 C 278.920 163.456,279.625 163.204,279.900 163.202 C 280.175 163.201,280.400 163.032,280.400 162.827 C 280.400 162.622,280.793 162.329,281.274 162.177 C 282.440 161.807,286.633 157.635,286.979 156.500 C 287.130 156.005,287.422 155.600,287.627 155.600 C 287.832 155.600,288.000 155.370,288.000 155.089 C 288.000 154.808,288.360 154.270,288.800 153.893 C 289.240 153.516,289.600 152.955,289.600 152.647 C 289.600 152.338,289.870 151.982,290.200 151.855 C 290.530 151.729,290.800 151.371,290.800 151.062 C 290.800 150.752,291.070 150.274,291.400 150.000 C 291.730 149.726,292.000 149.074,292.000 148.551 C 292.000 148.028,292.166 147.600,292.368 147.600 C 292.571 147.600,292.864 147.021,293.019 146.313 C 293.175 145.605,293.438 144.750,293.604 144.413 C 294.456 142.686,294.794 141.725,294.803 141.000 C 294.808 140.560,294.971 138.400,295.164 136.200 C 295.741 129.627,295.043 114.057,294.095 112.370 C 293.672 111.616,293.200 110.325,293.045 109.500 C 292.890 108.675,292.615 108.000,292.433 108.000 C 292.251 108.000,291.987 107.280,291.846 106.400 C 291.706 105.520,291.427 104.800,291.227 104.800 C 291.027 104.800,290.745 104.260,290.600 103.600 C 290.455 102.940,290.185 102.400,290.000 102.400 C 289.815 102.400,289.545 101.860,289.400 101.200 C 289.255 100.540,288.990 100.000,288.812 100.000 C 288.633 100.000,288.374 99.550,288.236 99.000 C 288.098 98.450,287.822 98.000,287.624 98.000 C 287.426 98.000,287.145 97.460,287.000 96.800 C 286.855 96.140,286.571 95.600,286.368 95.600 C 286.166 95.600,286.000 95.401,286.000 95.158 C 286.000 94.690,283.620 91.494,283.103 91.267 C 282.936 91.193,282.800 90.918,282.800 90.656 C 282.800 90.393,282.440 89.870,282.000 89.493 C 281.560 89.116,281.200 88.536,281.200 88.204 C 281.200 87.872,281.032 87.600,280.827 87.600 C 280.622 87.600,280.353 87.285,280.231 86.900 C 280.031 86.275,278.645 84.607,275.824 81.600 C 274.923 80.639,273.995 79.868,271.400 77.926 C 270.740 77.432,270.110 76.931,270.000 76.813 C 269.507 76.286,266.031 74.800,265.290 74.800 C 264.837 74.800,264.407 74.639,264.333 74.442 C 264.186 74.046,253.584 73.595,250.900 73.871 M263.154 75.577 C 265.219 75.990,267.019 76.500,267.154 76.711 C 267.289 76.921,268.390 77.728,269.600 78.503 C 272.055 80.076,277.469 85.224,278.882 87.329 C 279.387 88.081,281.437 91.118,283.439 94.078 C 285.440 97.038,287.738 100.887,288.547 102.630 C 289.355 104.374,290.373 106.466,290.808 107.279 C 291.244 108.093,291.600 109.160,291.600 109.651 C 291.600 110.633,292.157 112.548,293.152 114.986 C 294.769 118.948,293.862 141.891,291.982 144.600 C 291.829 144.820,291.575 145.720,291.417 146.600 C 291.167 147.992,287.706 153.479,285.739 155.600 C 285.433 155.930,284.466 157.107,283.590 158.215 C 282.138 160.051,281.110 160.746,276.705 162.866 C 276.323 163.050,275.734 163.200,275.395 163.200 C 275.057 163.200,273.756 163.560,272.504 164.000 C 269.159 165.176,264.709 165.095,261.523 163.800 C 260.170 163.250,258.893 162.800,258.687 162.800 C 258.252 162.800,255.532 160.545,252.464 157.640 C 248.335 153.731,245.026 153.816,239.200 157.983 C 235.632 160.535,231.002 159.725,230.149 156.400 C 230.008 155.850,229.643 155.112,229.339 154.760 C 228.011 153.226,227.808 108.553,229.115 105.400 C 229.570 104.300,230.139 102.200,230.377 100.734 C 230.862 97.759,231.993 94.021,232.958 92.200 C 233.309 91.540,233.596 90.696,233.598 90.324 C 233.599 89.952,233.768 89.543,233.974 89.416 C 234.180 89.289,234.784 88.233,235.317 87.070 C 239.403 78.145,251.342 73.215,263.154 75.577 M94.000 99.543 C 94.000 99.732,92.952 99.996,91.672 100.129 C 90.392 100.263,88.817 100.648,88.172 100.984 C 87.527 101.320,86.696 101.596,86.324 101.598 C 85.952 101.599,85.536 101.780,85.400 102.000 C 85.264 102.220,84.708 102.400,84.164 102.400 C 83.620 102.400,83.078 102.654,82.959 102.964 C 82.839 103.274,82.280 103.644,81.716 103.785 C 80.564 104.074,77.217 107.129,77.207 107.900 C 77.203 108.175,77.034 108.400,76.832 108.400 C 76.629 108.400,76.345 108.940,76.200 109.600 C 76.055 110.260,75.787 110.800,75.603 110.800 C 75.420 110.800,75.149 111.520,75.000 112.400 C 74.851 113.280,74.566 114.000,74.365 114.000 C 74.164 114.000,74.000 115.260,74.000 116.800 C 74.000 118.340,74.169 119.600,74.375 119.600 C 74.582 119.600,74.872 120.410,75.021 121.400 C 75.169 122.390,75.436 123.200,75.614 123.200 C 75.791 123.200,76.055 123.740,76.200 124.400 C 76.345 125.060,76.615 125.600,76.800 125.600 C 76.985 125.600,77.255 126.138,77.399 126.795 C 77.543 127.453,77.828 128.094,78.031 128.219 C 78.234 128.345,78.400 128.724,78.400 129.063 C 78.400 129.402,78.646 130.246,78.946 130.940 C 79.246 131.633,79.826 133.010,80.235 134.000 C 80.643 134.990,81.092 135.890,81.231 136.000 C 81.371 136.110,81.609 136.875,81.760 137.700 C 81.912 138.525,82.184 139.200,82.365 139.200 C 82.547 139.200,82.795 139.946,82.917 140.858 C 83.039 141.769,83.311 142.624,83.521 142.758 C 83.731 142.891,84.032 143.945,84.189 145.100 C 84.346 146.255,84.614 147.200,84.785 147.200 C 84.955 147.200,85.197 147.961,85.322 148.891 C 85.446 149.822,85.740 150.647,85.974 150.725 C 86.208 150.803,86.400 151.209,86.400 151.626 C 86.400 152.044,87.210 154.074,88.200 156.136 C 89.190 158.199,90.000 160.182,90.000 160.543 C 90.000 160.904,90.172 161.200,90.382 161.200 C 90.592 161.200,90.888 161.875,91.040 162.700 C 91.191 163.525,91.483 164.309,91.688 164.442 C 91.893 164.576,92.161 165.431,92.283 166.342 C 92.405 167.254,92.644 168.000,92.813 168.000 C 92.983 168.000,93.247 169.080,93.400 170.400 C 93.553 171.720,93.828 172.800,94.010 172.800 C 94.193 172.800,94.466 173.790,94.617 175.000 C 94.768 176.210,95.036 177.200,95.211 177.200 C 95.386 177.200,95.651 177.920,95.800 178.800 C 95.949 179.680,96.234 180.400,96.435 180.400 C 96.636 180.400,96.800 180.670,96.800 181.000 C 96.800 181.330,96.980 181.600,97.200 181.600 C 97.420 181.600,97.571 181.735,97.536 181.900 C 97.274 183.141,99.839 185.908,101.574 186.255 C 102.248 186.390,102.800 186.658,102.800 186.850 C 102.800 187.827,106.449 187.136,109.400 185.600 C 112.581 183.944,115.092 183.537,116.805 184.400 C 119.795 185.905,120.954 186.546,121.200 186.832 C 121.310 186.960,122.255 187.487,123.300 188.003 C 124.345 188.519,125.200 189.090,125.200 189.271 C 125.200 189.452,125.397 189.600,125.637 189.600 C 125.877 189.600,126.531 189.960,127.091 190.400 C 127.650 190.840,128.534 191.200,129.054 191.200 C 129.574 191.200,130.000 191.380,130.000 191.600 C 130.000 191.820,130.270 192.000,130.600 192.000 C 130.930 192.000,131.200 192.167,131.200 192.371 C 131.200 192.575,132.235 192.854,133.500 192.991 C 134.765 193.127,136.113 193.410,136.495 193.620 C 137.361 194.094,140.400 194.122,140.400 193.656 C 140.400 193.466,141.451 193.216,142.735 193.099 C 144.741 192.918,146.460 192.340,147.200 191.600 C 148.384 190.416,150.861 189.513,152.297 189.742 C 153.497 189.933,156.393 192.466,156.398 193.329 C 156.399 193.509,156.625 193.908,156.900 194.215 C 158.041 195.487,158.317 195.907,158.604 196.812 C 159.672 200.177,163.083 199.512,165.321 195.504 C 166.753 192.939,168.285 178.125,167.228 177.068 C 166.987 176.827,166.800 175.052,166.800 173.004 C 166.800 171.004,166.530 168.331,166.200 167.065 C 165.870 165.798,165.600 164.410,165.600 163.980 C 165.600 163.551,165.438 163.200,165.239 163.200 C 165.041 163.200,164.753 162.120,164.600 160.799 C 164.447 159.479,164.175 158.308,163.995 158.197 C 163.816 158.086,163.548 157.278,163.400 156.400 C 163.252 155.522,162.976 154.709,162.788 154.593 C 162.600 154.476,162.325 153.576,162.178 152.591 C 162.030 151.606,161.758 150.800,161.573 150.800 C 161.388 150.800,161.118 150.170,160.974 149.400 C 160.829 148.630,160.584 148.000,160.429 148.000 C 160.274 148.000,159.728 146.965,159.215 145.700 C 158.703 144.435,157.969 143.040,157.585 142.600 C 157.201 142.160,156.503 140.945,156.033 139.900 C 155.564 138.855,155.017 138.000,154.817 138.000 C 154.617 138.000,154.328 137.603,154.174 137.119 C 154.020 136.634,153.693 136.026,153.447 135.768 C 153.201 135.509,152.730 134.888,152.400 134.386 C 152.070 133.884,151.305 132.893,150.700 132.184 C 150.095 131.475,149.600 130.723,149.600 130.513 C 149.600 130.304,149.060 129.651,148.400 129.063 C 147.740 128.475,147.192 127.770,147.183 127.497 C 147.174 127.224,146.634 126.558,145.983 126.019 C 145.332 125.479,144.800 124.879,144.800 124.685 C 144.800 124.132,139.059 118.409,138.500 118.404 C 138.225 118.402,138.000 118.232,138.000 118.027 C 138.000 117.822,137.623 117.534,137.162 117.388 C 136.700 117.241,135.665 116.455,134.862 115.640 C 134.058 114.825,132.504 113.537,131.409 112.779 C 129.073 111.160,128.900 111.033,127.639 109.993 C 127.110 109.557,126.517 109.200,126.320 109.200 C 126.123 109.200,125.545 108.750,125.035 108.200 C 124.525 107.650,123.917 107.200,123.683 107.200 C 123.449 107.200,123.015 106.975,122.718 106.700 C 121.781 105.831,117.236 103.600,116.401 103.600 C 115.960 103.600,115.600 103.434,115.600 103.232 C 115.600 103.029,115.048 102.742,114.373 102.594 C 113.698 102.446,112.663 102.073,112.073 101.765 C 111.483 101.457,110.426 101.204,109.724 101.202 C 109.022 101.201,108.343 101.032,108.217 100.827 C 108.090 100.622,106.549 100.328,104.793 100.175 C 103.037 100.022,101.600 99.740,101.600 99.548 C 101.600 99.357,99.890 99.200,97.800 99.200 C 95.710 99.200,94.000 99.354,94.000 99.543 M103.465 101.400 C 104.731 101.730,106.608 102.000,107.635 102.000 C 108.807 102.000,109.688 102.223,110.000 102.600 C 110.274 102.930,110.814 103.200,111.200 103.200 C 112.827 103.200,120.086 106.730,123.912 109.382 C 125.514 110.492,127.415 111.760,128.136 112.200 C 131.093 114.004,132.052 114.758,135.762 118.196 C 137.896 120.174,139.948 121.956,140.321 122.158 C 141.074 122.563,144.366 126.048,144.387 126.462 C 144.400 126.722,146.229 129.088,148.203 131.400 C 150.362 133.928,151.513 135.443,152.152 136.600 C 152.517 137.260,153.444 138.610,154.211 139.600 C 155.660 141.471,157.200 144.466,157.200 145.413 C 157.200 145.714,157.440 146.104,157.732 146.280 C 158.304 146.623,159.600 149.038,159.600 149.760 C 159.600 150.000,160.300 152.087,161.156 154.398 C 162.012 156.709,163.009 159.860,163.373 161.400 C 163.737 162.940,164.207 164.830,164.419 165.600 C 165.849 170.804,166.406 184.865,165.362 189.400 C 163.874 195.859,163.522 196.804,162.504 197.060 C 161.281 197.367,159.600 196.618,159.600 195.765 C 159.600 195.075,156.413 190.885,154.607 189.200 C 152.986 187.688,150.913 187.904,147.050 189.988 C 141.967 192.730,135.440 192.981,130.973 190.606 C 129.932 190.053,128.851 189.600,128.571 189.600 C 128.291 189.600,127.553 189.175,126.931 188.656 C 126.309 188.137,125.260 187.411,124.600 187.043 C 123.940 186.674,122.500 185.812,121.400 185.127 C 117.225 182.527,112.052 182.294,108.483 184.547 C 104.482 187.073,98.000 184.268,98.000 180.010 C 98.000 179.442,97.738 178.604,97.417 178.146 C 97.097 177.689,96.364 175.354,95.788 172.957 C 95.212 170.561,94.484 168.122,94.170 167.538 C 93.857 166.954,93.598 166.054,93.596 165.538 C 93.594 165.022,93.126 163.610,92.557 162.400 C 90.831 158.733,88.000 152.033,88.000 151.615 C 88.000 151.399,87.550 150.205,87.000 148.962 C 86.450 147.718,86.000 146.378,86.000 145.983 C 86.000 145.589,85.627 144.396,85.170 143.333 C 84.714 142.270,83.899 139.879,83.360 138.020 C 82.821 136.161,82.132 134.361,81.830 134.020 C 81.528 133.679,80.718 131.711,80.030 129.647 C 79.342 127.582,78.109 124.702,77.290 123.247 C 75.377 119.848,75.079 114.297,76.700 112.236 C 77.195 111.607,77.600 110.852,77.600 110.558 C 77.600 109.555,80.132 106.429,81.450 105.803 C 82.174 105.460,82.875 105.003,83.007 104.788 C 83.317 104.288,86.569 102.800,87.354 102.800 C 87.684 102.800,88.045 102.651,88.158 102.468 C 88.270 102.286,89.406 101.906,90.681 101.623 C 91.957 101.341,93.180 101.054,93.400 100.987 C 94.644 100.603,101.483 100.884,103.465 101.400 M55.100 156.906 C 54.189 159.122,54.120 167.261,55.000 168.800 C 55.314 169.350,55.578 170.385,55.586 171.100 C 55.594 171.815,55.769 172.400,55.975 172.400 C 56.182 172.400,56.472 173.210,56.621 174.200 C 56.769 175.190,57.030 176.000,57.200 176.000 C 57.370 176.000,57.631 176.810,57.779 177.800 C 57.928 178.790,58.204 179.600,58.393 179.600 C 58.582 179.600,58.855 180.140,59.000 180.800 C 59.145 181.460,59.429 182.000,59.632 182.000 C 59.834 182.000,60.000 182.326,60.000 182.724 C 60.000 183.121,60.264 183.796,60.587 184.224 C 60.910 184.651,61.180 185.223,61.187 185.496 C 61.208 186.303,62.922 190.000,63.275 190.000 C 63.454 190.000,63.600 190.270,63.600 190.600 C 63.600 190.930,63.780 191.200,64.000 191.200 C 64.220 191.200,64.400 191.457,64.400 191.772 C 64.400 192.434,66.900 195.200,67.498 195.200 C 67.720 195.200,68.119 195.461,68.384 195.780 C 68.649 196.100,69.661 196.480,70.633 196.626 C 71.605 196.772,72.400 197.050,72.400 197.245 C 72.400 197.440,73.480 197.600,74.800 197.600 C 76.120 197.600,77.200 197.436,77.200 197.235 C 77.200 197.034,77.965 196.743,78.900 196.588 C 81.313 196.187,85.048 192.290,85.424 189.779 C 85.837 187.023,85.480 180.693,84.900 180.500 C 84.625 180.408,84.400 179.893,84.400 179.354 C 84.400 178.816,84.146 178.278,83.836 178.159 C 83.526 178.039,83.163 177.505,83.028 176.971 C 82.894 176.437,82.608 176.000,82.392 176.000 C 82.177 176.000,81.999 175.775,81.998 175.500 C 81.995 174.898,78.237 171.200,77.629 171.200 C 77.393 171.200,77.200 171.023,77.200 170.808 C 77.200 170.592,76.750 170.302,76.200 170.164 C 75.650 170.026,75.200 169.753,75.200 169.557 C 75.200 169.360,74.943 169.200,74.629 169.200 C 74.314 169.200,73.811 168.954,73.510 168.653 C 73.209 168.352,72.557 167.977,72.061 167.819 C 71.565 167.662,70.660 167.053,70.051 166.467 C 69.441 165.880,68.154 164.770,67.191 164.000 C 66.227 163.230,64.800 161.906,64.019 161.057 C 57.847 154.348,56.424 153.686,55.100 156.906 M58.955 157.700 C 59.731 158.195,60.374 158.752,60.383 158.939 C 60.392 159.125,61.120 160.095,62.000 161.095 C 62.880 162.095,63.600 163.045,63.600 163.208 C 63.600 163.370,64.110 163.714,64.733 163.972 C 65.356 164.230,66.481 165.032,67.233 165.753 C 67.985 166.475,69.950 167.931,71.600 168.990 C 78.824 173.626,80.076 174.549,80.440 175.506 C 80.650 176.059,81.267 177.040,81.811 177.686 C 82.355 178.333,82.800 179.090,82.800 179.369 C 82.800 179.649,83.113 180.490,83.496 181.239 C 85.701 185.555,82.744 194.800,79.159 194.800 C 78.756 194.800,77.794 195.102,77.021 195.471 C 74.579 196.635,66.854 194.461,66.209 192.427 C 66.075 192.005,65.565 191.062,65.077 190.330 C 64.588 189.599,63.846 188.190,63.427 187.200 C 63.008 186.210,61.893 183.822,60.949 181.893 C 60.006 179.964,59.122 177.714,58.985 176.893 C 58.848 176.072,58.320 174.320,57.813 173.000 C 55.970 168.204,55.532 165.692,55.823 161.600 C 56.183 156.556,56.515 156.143,58.955 157.700 M307.835 163.944 C 307.718 164.133,306.852 164.396,305.911 164.528 C 304.066 164.787,302.008 165.614,302.003 166.100 C 302.001 166.265,301.653 166.400,301.229 166.400 C 300.804 166.400,300.196 166.661,299.877 166.980 C 299.558 167.299,298.825 167.679,298.248 167.824 C 297.672 167.968,297.200 168.247,297.200 168.443 C 297.200 168.640,296.943 168.800,296.629 168.800 C 296.314 168.800,295.812 169.025,295.512 169.300 C 294.774 169.976,293.589 170.720,292.500 171.191 C 292.005 171.405,291.600 171.765,291.600 171.990 C 291.600 172.216,291.352 172.400,291.049 172.400 C 290.746 172.400,290.274 172.670,290.000 173.000 C 289.726 173.330,289.186 173.600,288.800 173.600 C 288.414 173.600,287.874 173.870,287.600 174.200 C 287.326 174.530,286.764 174.800,286.351 174.800 C 285.938 174.800,285.600 174.977,285.600 175.192 C 285.600 175.408,285.150 175.698,284.600 175.836 C 284.050 175.974,283.600 176.233,283.600 176.412 C 283.600 176.590,283.060 176.855,282.400 177.000 C 281.740 177.145,281.200 177.415,281.200 177.600 C 281.200 177.785,280.660 178.055,280.000 178.200 C 279.340 178.345,278.800 178.627,278.800 178.827 C 278.800 179.027,278.080 179.306,277.200 179.446 C 276.320 179.587,275.600 179.836,275.600 180.000 C 275.600 180.163,274.727 180.413,273.661 180.554 C 272.595 180.696,271.608 180.925,271.469 181.064 C 271.040 181.494,267.052 182.773,266.100 182.787 C 265.605 182.794,265.200 182.980,265.200 183.200 C 265.200 183.443,263.408 183.600,260.624 183.600 C 258.004 183.600,255.942 183.429,255.800 183.200 C 255.664 182.980,255.071 182.800,254.482 182.800 C 253.473 182.800,251.990 182.197,247.486 179.953 C 244.280 178.356,243.127 177.681,242.140 176.823 C 241.620 176.370,241.114 176.000,241.017 176.000 C 240.920 176.000,240.040 175.460,239.062 174.800 C 238.084 174.140,236.905 173.600,236.442 173.600 C 235.979 173.600,235.600 173.433,235.600 173.229 C 235.600 173.025,234.608 172.734,233.395 172.582 C 232.182 172.430,231.101 172.163,230.993 171.988 C 230.884 171.813,230.062 171.546,229.165 171.394 C 228.268 171.243,227.054 170.868,226.467 170.562 C 225.880 170.256,224.761 170.004,223.980 170.002 C 223.199 170.001,222.335 169.775,222.061 169.501 C 221.442 168.882,207.244 168.888,206.850 169.507 C 206.713 169.723,205.351 169.979,203.825 170.074 C 202.175 170.177,200.987 170.440,200.892 170.724 C 200.805 170.986,200.343 171.201,199.867 171.202 C 199.390 171.204,198.484 171.474,197.854 171.802 C 197.224 172.131,196.481 172.400,196.203 172.400 C 195.925 172.400,195.474 172.670,195.200 173.000 C 194.926 173.330,194.358 173.600,193.938 173.600 C 193.519 173.600,193.071 173.870,192.945 174.200 C 192.818 174.530,192.464 174.800,192.157 174.800 C 191.851 174.800,191.600 174.968,191.600 175.173 C 191.600 175.378,191.195 175.675,190.701 175.831 C 190.206 175.988,188.580 177.351,187.087 178.858 C 185.594 180.366,184.231 181.600,184.057 181.600 C 183.658 181.600,179.200 185.934,179.200 186.321 C 179.200 186.479,178.795 187.063,178.300 187.619 C 176.982 189.099,175.600 191.111,175.600 191.550 C 175.600 191.761,175.465 191.993,175.300 192.067 C 174.863 192.261,173.600 194.766,173.600 195.438 C 173.600 195.753,173.421 196.323,173.203 196.705 C 172.653 197.668,171.567 200.774,171.317 202.100 C 171.203 202.705,170.963 203.200,170.783 203.200 C 170.604 203.200,170.332 204.235,170.179 205.500 C 170.026 206.765,169.751 207.990,169.567 208.222 C 169.382 208.454,169.110 210.164,168.962 212.022 C 168.814 213.880,168.536 215.599,168.346 215.841 C 168.155 216.084,167.882 218.199,167.739 220.541 C 167.596 222.884,167.352 224.800,167.198 224.800 C 167.043 224.800,166.789 228.085,166.632 232.100 C 166.475 236.115,166.179 239.571,165.974 239.780 C 165.768 239.989,165.600 240.653,165.600 241.256 C 165.600 241.859,165.446 242.448,165.257 242.565 C 165.069 242.681,164.806 243.686,164.675 244.798 C 164.543 245.910,164.298 247.040,164.129 247.310 C 163.762 247.897,163.669 248.206,163.352 249.900 C 163.219 250.615,162.969 251.200,162.798 251.200 C 162.627 251.200,162.371 251.695,162.230 252.300 C 162.088 252.905,161.722 253.940,161.416 254.600 C 160.229 257.159,159.600 258.739,159.600 259.160 C 159.600 259.402,159.434 259.600,159.232 259.600 C 159.029 259.600,158.745 260.140,158.600 260.800 C 158.455 261.460,158.171 262.000,157.968 262.000 C 157.766 262.000,157.600 262.349,157.600 262.776 C 157.600 263.203,157.434 263.655,157.231 263.781 C 157.028 263.906,156.743 264.547,156.599 265.205 C 156.455 265.862,156.173 266.400,155.973 266.400 C 155.773 266.400,155.494 267.120,155.354 268.000 C 155.213 268.880,154.941 269.600,154.749 269.600 C 154.557 269.600,154.399 269.825,154.398 270.100 C 154.396 270.375,154.133 271.103,153.812 271.717 C 153.492 272.331,153.113 273.456,152.970 274.217 C 152.828 274.978,152.568 275.600,152.393 275.600 C 152.218 275.600,151.946 276.545,151.789 277.700 C 151.632 278.855,151.342 279.903,151.145 280.028 C 150.947 280.153,150.673 281.728,150.534 283.528 C 150.395 285.328,150.143 286.800,149.973 286.800 C 149.803 286.800,149.537 288.600,149.381 290.800 C 149.225 293.000,148.957 294.800,148.785 294.800 C 148.614 294.800,148.377 295.745,148.259 296.900 C 148.140 298.055,147.926 300.104,147.783 301.453 C 147.612 303.066,147.673 303.998,147.962 304.176 C 148.203 304.325,148.400 305.326,148.400 306.400 C 148.400 307.474,148.559 308.451,148.753 308.571 C 148.948 308.691,149.230 309.782,149.382 310.995 C 149.534 312.208,149.802 313.200,149.979 313.200 C 150.155 313.200,150.413 313.765,150.551 314.455 C 150.689 315.145,151.231 316.107,151.754 316.593 C 152.278 317.078,152.830 317.863,152.980 318.338 C 153.131 318.812,153.423 319.200,153.630 319.200 C 153.837 319.200,154.752 319.740,155.663 320.400 C 156.575 321.060,157.548 321.600,157.827 321.600 C 158.105 321.600,158.398 321.795,158.478 322.033 C 158.768 322.905,171.600 324.128,171.600 323.284 C 171.600 323.082,172.802 322.803,174.271 322.666 C 175.740 322.529,177.058 322.230,177.199 322.001 C 177.340 321.773,178.928 321.473,180.728 321.334 C 182.528 321.195,184.000 320.928,184.000 320.741 C 184.000 320.271,197.445 320.309,198.305 320.781 C 198.687 320.991,200.215 321.275,201.700 321.413 C 203.185 321.551,204.400 321.815,204.400 322.000 C 204.400 322.185,204.982 322.464,205.694 322.621 C 206.986 322.904,208.528 323.739,209.529 324.695 C 209.819 324.973,210.233 325.200,210.448 325.200 C 210.853 325.200,212.791 327.134,212.811 327.558 C 212.818 327.691,213.649 328.690,214.659 329.777 C 215.669 330.864,216.671 332.259,216.887 332.877 C 217.102 333.495,217.441 334.000,217.639 334.000 C 217.838 334.000,218.000 334.347,218.000 334.771 C 218.000 335.196,218.281 335.824,218.624 336.167 C 218.968 336.511,219.352 337.424,219.477 338.196 C 219.602 338.968,219.840 339.600,220.006 339.600 C 220.171 339.600,220.435 340.815,220.593 342.300 C 220.750 343.785,221.018 345.180,221.188 345.400 C 221.359 345.620,221.625 348.390,221.780 351.555 C 221.935 354.720,222.224 357.600,222.421 357.955 C 222.619 358.310,222.961 360.940,223.182 363.800 C 223.955 373.825,224.321 377.106,224.759 377.923 C 225.001 378.376,225.200 379.392,225.200 380.179 C 225.200 380.967,225.370 381.923,225.578 382.305 C 225.786 382.687,226.064 383.675,226.196 384.500 C 226.328 385.325,226.585 386.000,226.767 386.000 C 226.949 386.000,227.213 386.720,227.354 387.600 C 227.494 388.480,227.787 389.200,228.005 389.200 C 228.222 389.200,228.400 389.480,228.400 389.822 C 228.400 390.753,229.962 394.000,230.410 394.000 C 230.624 394.000,230.800 394.273,230.800 394.607 C 230.800 394.941,231.445 395.841,232.234 396.607 C 236.173 400.432,243.794 396.357,244.641 389.974 C 244.785 388.888,245.037 388.000,245.200 388.000 C 245.364 388.000,245.610 387.295,245.748 386.434 C 245.886 385.572,246.188 384.804,246.419 384.727 C 246.650 384.650,246.945 383.555,247.075 382.294 C 247.205 381.032,247.440 380.000,247.597 380.000 C 247.754 380.000,248.002 378.433,248.150 376.518 C 248.297 374.603,248.580 372.936,248.780 372.813 C 248.979 372.689,249.269 367.731,249.423 361.794 C 249.578 355.857,249.836 350.820,249.997 350.600 C 250.159 350.380,250.406 348.220,250.547 345.800 C 250.689 343.380,250.983 341.340,251.202 341.267 C 251.421 341.193,251.600 340.619,251.600 339.990 C 251.600 339.362,251.764 338.746,251.965 338.622 C 252.166 338.497,252.452 337.677,252.600 336.798 C 252.749 335.919,253.020 335.200,253.203 335.200 C 253.387 335.200,253.655 334.660,253.800 334.000 C 253.945 333.340,254.217 332.800,254.405 332.800 C 254.593 332.800,254.866 332.422,255.013 331.961 C 255.364 330.853,258.236 328.000,259.000 328.000 C 259.330 328.000,259.600 327.820,259.600 327.600 C 259.600 327.380,260.288 327.200,261.129 327.200 C 262.689 327.200,264.400 329.368,264.400 331.344 C 264.400 331.705,264.562 332.000,264.761 332.000 C 264.959 332.000,265.249 333.125,265.405 334.500 C 265.561 335.875,265.824 337.180,265.988 337.400 C 266.153 337.620,266.397 338.377,266.530 339.081 C 266.848 340.763,269.170 343.600,270.229 343.600 C 270.543 343.600,270.800 343.743,270.800 343.917 C 270.800 345.066,275.072 345.096,276.000 343.954 C 276.110 343.819,276.579 343.590,277.042 343.446 C 277.504 343.301,278.224 342.512,278.642 341.692 C 279.059 340.871,279.508 340.110,279.641 340.000 C 279.773 339.890,280.006 338.120,280.158 336.068 C 280.309 334.015,280.598 332.035,280.798 331.668 C 280.999 331.300,281.277 329.605,281.416 327.900 C 281.555 326.195,281.815 324.800,281.995 324.800 C 282.174 324.800,282.447 323.720,282.600 322.400 C 282.753 321.080,283.028 320.000,283.210 320.000 C 283.393 320.000,283.666 319.010,283.817 317.800 C 283.968 316.590,284.206 315.599,284.346 315.599 C 284.486 315.598,284.928 314.743,285.329 313.699 C 285.729 312.654,286.201 311.524,286.378 311.187 C 286.554 310.850,286.825 309.995,286.981 309.287 C 287.136 308.579,287.415 308.000,287.600 308.000 C 287.785 308.000,288.063 307.425,288.217 306.723 C 288.371 306.020,288.746 305.197,289.049 304.894 C 289.352 304.591,289.600 304.086,289.600 303.771 C 289.600 303.457,289.780 303.200,290.000 303.200 C 290.220 303.200,290.400 302.928,290.400 302.596 C 290.400 302.264,290.760 301.684,291.200 301.307 C 291.640 300.930,292.000 300.430,292.000 300.194 C 292.000 299.959,293.170 299.082,294.600 298.245 C 296.030 297.409,297.200 296.561,297.200 296.362 C 297.200 296.163,297.425 295.992,297.700 295.982 C 297.975 295.971,298.560 295.507,299.000 294.951 C 300.388 293.193,302.046 291.600,302.485 291.600 C 302.718 291.600,303.325 291.150,303.835 290.600 C 304.345 290.050,304.936 289.600,305.149 289.600 C 305.362 289.600,306.585 288.525,307.868 287.212 C 310.807 284.202,311.200 283.732,311.200 283.217 C 311.200 282.988,311.384 282.800,311.610 282.800 C 311.835 282.800,312.195 282.395,312.409 281.900 C 312.859 280.859,313.689 279.490,314.046 279.200 C 314.181 279.090,314.419 278.595,314.573 278.100 C 314.728 277.605,315.002 277.200,315.182 277.200 C 315.363 277.200,315.629 276.570,315.774 275.800 C 315.918 275.030,316.185 274.400,316.367 274.400 C 316.549 274.400,316.813 273.680,316.954 272.800 C 317.094 271.920,317.367 271.200,317.559 271.200 C 317.752 271.200,318.030 270.394,318.178 269.409 C 318.325 268.424,318.616 267.514,318.823 267.386 C 319.030 267.258,319.200 266.548,319.200 265.810 C 319.200 265.071,319.375 264.407,319.589 264.333 C 319.803 264.260,320.099 262.895,320.246 261.300 C 320.394 259.705,320.648 258.400,320.810 258.400 C 320.973 258.400,321.235 257.005,321.393 255.300 C 321.551 253.595,321.848 251.994,322.054 251.742 C 322.259 251.491,322.537 250.366,322.670 249.242 C 322.803 248.119,323.052 247.200,323.224 247.200 C 323.396 247.200,323.665 245.985,323.821 244.500 C 323.978 243.015,324.258 241.702,324.443 241.583 C 324.628 241.463,324.900 240.068,325.047 238.483 C 325.194 236.897,325.460 235.600,325.638 235.600 C 325.815 235.600,326.082 234.520,326.232 233.200 C 326.381 231.880,326.660 230.800,326.852 230.800 C 327.043 230.800,327.200 230.361,327.200 229.824 C 327.200 229.287,327.359 228.749,327.553 228.629 C 327.748 228.509,328.030 227.421,328.181 226.212 C 328.332 225.002,328.607 223.920,328.791 223.806 C 328.975 223.692,329.252 222.654,329.407 221.500 C 329.563 220.345,329.831 219.220,330.003 219.000 C 331.065 217.644,332.177 197.783,331.254 196.661 C 331.046 196.407,330.745 195.300,330.587 194.200 C 330.429 193.100,330.162 192.020,329.995 191.800 C 329.827 191.580,329.558 190.597,329.396 189.615 C 329.234 188.634,328.956 187.554,328.778 187.215 C 328.444 186.580,327.691 183.834,327.320 181.900 C 327.204 181.295,326.965 180.800,326.790 180.800 C 326.614 180.800,326.349 180.081,326.200 179.202 C 326.052 178.323,325.786 177.515,325.611 177.407 C 325.435 177.298,325.172 176.577,325.027 175.804 C 324.882 175.032,324.592 174.400,324.382 174.400 C 324.172 174.400,324.000 174.132,324.000 173.804 C 324.000 172.947,322.311 169.200,321.925 169.200 C 321.746 169.200,321.600 168.970,321.600 168.689 C 321.600 168.144,320.216 166.800,319.655 166.800 C 319.470 166.800,318.754 166.260,318.063 165.600 C 317.351 164.919,316.373 164.400,315.804 164.400 C 315.252 164.400,314.800 164.220,314.800 164.000 C 314.800 163.508,308.137 163.454,307.835 163.944 M314.847 165.581 C 317.159 166.459,320.000 168.299,320.000 168.917 C 320.000 169.141,320.405 169.881,320.900 170.562 C 322.086 172.193,322.974 174.108,323.793 176.800 C 324.162 178.010,324.722 179.403,325.038 179.896 C 325.628 180.815,328.429 191.200,329.435 196.200 C 330.633 202.148,330.033 213.279,328.133 220.383 C 326.934 224.869,326.483 226.749,326.019 229.200 C 325.831 230.190,325.305 232.105,324.849 233.457 C 324.394 234.808,323.825 237.238,323.586 238.857 C 323.347 240.475,322.894 242.610,322.580 243.600 C 321.829 245.968,320.513 252.103,319.790 256.600 C 318.593 264.047,316.436 271.896,315.161 273.444 C 314.960 273.688,314.539 274.740,314.226 275.781 C 313.912 276.823,313.396 277.974,313.078 278.338 C 312.760 278.702,312.253 279.484,311.950 280.075 C 310.872 282.181,306.338 287.122,304.716 287.959 C 304.120 288.266,302.049 289.976,300.113 291.759 C 296.601 294.992,294.375 296.805,292.308 298.115 C 291.708 298.496,290.918 299.391,290.553 300.104 C 290.187 300.817,289.778 301.490,289.643 301.600 C 287.605 303.262,282.450 315.534,281.578 320.800 C 280.843 325.236,280.309 327.945,279.802 329.800 C 279.502 330.900,279.133 333.240,278.983 335.000 C 278.337 342.584,273.814 345.503,269.485 341.131 C 267.944 339.574,266.400 335.185,266.400 332.360 C 266.400 331.748,266.240 331.149,266.045 331.028 C 265.850 330.907,265.574 330.222,265.431 329.504 C 264.355 324.098,258.715 324.653,254.235 330.605 C 250.865 335.082,249.072 342.319,248.603 353.327 C 247.932 369.113,247.919 369.302,247.179 375.000 C 246.686 378.794,244.024 388.343,242.747 390.895 C 242.556 391.277,242.400 391.942,242.400 392.374 C 242.400 393.107,240.169 395.189,239.362 395.209 C 239.163 395.214,238.550 395.570,238.000 396.000 C 236.435 397.224,235.181 397.002,233.191 395.146 C 231.341 393.421,228.000 387.160,228.000 385.417 C 228.000 384.931,227.868 384.401,227.706 384.240 C 227.108 383.642,226.122 378.334,225.210 370.800 C 224.983 368.930,224.535 365.510,224.213 363.200 C 223.892 360.890,223.526 357.290,223.399 355.200 C 223.272 353.110,223.008 350.500,222.812 349.400 C 222.615 348.300,222.353 346.077,222.228 344.461 C 221.929 340.581,220.948 336.884,219.824 335.400 C 219.324 334.740,218.779 333.750,218.612 333.200 C 217.135 328.332,209.543 321.951,202.800 319.912 C 199.283 318.848,180.528 319.324,176.400 320.581 C 164.914 324.079,154.059 320.759,151.615 313.000 C 151.338 312.120,150.889 311.040,150.619 310.600 C 149.210 308.309,149.067 293.803,150.428 291.169 C 150.607 290.822,151.134 288.228,151.599 285.405 C 152.064 282.582,152.704 279.901,153.022 279.447 C 153.340 278.993,153.600 278.291,153.600 277.886 C 153.600 276.739,154.762 273.245,156.039 270.551 C 156.678 269.204,157.200 267.829,157.200 267.496 C 157.200 267.162,158.177 264.934,159.372 262.545 C 160.567 260.155,162.028 256.940,162.618 255.400 C 163.209 253.860,163.804 252.420,163.941 252.200 C 164.077 251.980,164.492 250.720,164.863 249.400 C 165.233 248.080,165.814 246.252,166.153 245.338 C 166.492 244.424,166.873 242.444,166.999 240.938 C 167.125 239.432,167.404 237.300,167.620 236.200 C 167.835 235.100,168.181 231.770,168.388 228.800 C 169.011 219.892,169.579 214.714,170.165 212.600 C 170.470 211.500,170.936 209.250,171.201 207.600 C 171.465 205.950,172.203 203.383,172.840 201.896 C 173.478 200.410,174.004 198.880,174.009 198.496 C 174.014 198.113,174.644 196.638,175.409 195.219 C 176.174 193.799,176.800 192.435,176.800 192.188 C 176.800 191.941,177.250 191.317,177.800 190.800 C 178.350 190.283,178.800 189.599,178.800 189.278 C 178.800 188.738,189.502 178.005,190.045 178.002 C 190.180 178.001,190.986 177.447,191.836 176.771 C 200.243 170.090,217.225 168.149,227.914 172.647 C 228.636 172.951,229.461 173.200,229.747 173.200 C 231.648 173.200,239.175 176.159,240.600 177.466 C 241.922 178.679,244.378 180.140,248.600 182.224 L 252.600 184.199 260.000 184.199 C 267.845 184.200,269.229 183.964,275.200 181.608 C 276.410 181.131,277.858 180.597,278.417 180.422 C 278.977 180.247,281.332 179.090,283.651 177.852 C 285.970 176.613,288.145 175.600,288.485 175.600 C 288.824 175.600,289.319 175.338,289.585 175.018 C 290.056 174.451,297.725 169.600,298.151 169.600 C 298.268 169.600,299.028 169.150,299.838 168.600 C 300.649 168.050,301.602 167.599,301.956 167.598 C 302.310 167.596,303.140 167.306,303.800 166.953 C 307.529 164.958,311.808 164.426,314.847 165.581 M97.001 199.599 C 96.864 199.820,96.486 200.000,96.160 200.000 C 95.421 200.000,95.232 200.161,90.607 204.737 C 88.530 206.793,86.721 208.818,86.588 209.237 C 86.455 209.657,86.193 210.000,86.005 210.000 C 85.817 210.000,85.545 210.540,85.400 211.200 C 85.255 211.860,84.985 212.400,84.800 212.400 C 84.615 212.400,84.345 212.940,84.200 213.600 C 84.055 214.260,83.787 214.800,83.603 214.800 C 83.420 214.800,83.149 215.520,83.000 216.400 C 82.851 217.280,82.566 218.000,82.365 218.000 C 82.162 218.000,82.000 220.573,82.000 223.800 C 82.000 226.990,82.157 229.600,82.348 229.600 C 82.539 229.600,82.790 230.432,82.904 231.449 C 83.019 232.467,83.287 233.412,83.499 233.549 C 83.711 233.687,84.009 234.475,84.160 235.300 C 84.312 236.125,84.589 236.800,84.775 236.800 C 84.961 236.800,85.237 237.293,85.388 237.896 C 85.540 238.499,85.784 239.084,85.932 239.196 C 86.080 239.308,86.612 240.210,87.115 241.200 C 88.226 243.386,88.911 244.532,89.268 244.804 C 89.416 244.916,89.660 245.501,89.812 246.104 C 89.963 246.707,90.227 247.200,90.398 247.200 C 90.569 247.200,90.836 248.055,90.992 249.100 C 91.148 250.145,91.444 251.206,91.652 251.458 C 91.859 251.710,92.126 253.780,92.245 256.058 C 92.365 258.336,92.616 260.560,92.805 261.000 C 92.993 261.440,93.262 262.835,93.402 264.100 C 93.543 265.365,93.825 266.400,94.029 266.400 C 94.233 266.400,94.400 266.605,94.400 266.856 C 94.400 269.138,97.781 273.025,100.107 273.418 C 103.888 274.057,105.515 273.392,109.079 269.750 C 110.883 267.908,112.470 266.400,112.608 266.400 C 112.745 266.400,113.111 266.146,113.422 265.836 C 114.481 264.776,119.564 268.464,119.592 270.313 C 119.596 270.594,119.851 270.922,120.159 271.039 C 120.466 271.157,120.837 272.052,120.983 273.027 C 121.129 274.002,121.395 274.800,121.573 274.800 C 121.751 274.800,122.015 275.693,122.160 276.784 C 122.305 277.875,122.598 278.875,122.812 279.007 C 123.025 279.139,123.200 279.687,123.200 280.224 C 123.200 280.761,123.366 281.200,123.568 281.200 C 123.771 281.200,124.055 281.740,124.200 282.400 C 124.345 283.060,124.629 283.600,124.832 283.600 C 125.331 283.600,125.302 286.289,124.800 286.600 C 124.305 286.906,124.266 289.200,124.757 289.200 C 124.953 289.200,125.227 289.655,125.367 290.210 C 126.481 294.649,133.530 293.271,134.599 288.405 C 134.743 287.747,135.017 287.113,135.207 286.996 C 135.397 286.879,135.313 286.201,135.022 285.491 C 134.468 284.141,134.631 281.580,135.299 281.149 C 135.512 281.012,135.781 280.067,135.896 279.049 C 136.010 278.032,136.254 277.200,136.438 277.200 C 136.622 277.200,136.892 276.300,137.038 275.200 C 137.184 274.100,137.437 273.200,137.600 273.200 C 137.763 273.200,138.021 271.940,138.173 270.400 C 138.324 268.860,138.609 267.600,138.806 267.600 C 139.003 267.600,139.288 266.925,139.440 266.100 C 139.591 265.275,139.824 264.510,139.958 264.400 C 140.383 264.049,142.352 259.841,142.624 258.700 C 142.769 258.095,143.033 257.600,143.212 257.600 C 143.390 257.600,143.655 257.060,143.800 256.400 C 143.945 255.740,144.215 255.200,144.400 255.200 C 144.585 255.200,144.858 254.648,145.006 253.973 C 145.154 253.298,145.527 252.263,145.835 251.673 C 146.143 251.083,146.396 250.285,146.398 249.900 C 146.399 249.515,146.557 249.200,146.749 249.200 C 146.941 249.200,147.210 248.495,147.348 247.634 C 147.486 246.772,147.734 246.007,147.899 245.934 C 148.358 245.730,149.600 242.872,149.600 242.020 C 149.600 241.606,149.825 241.191,150.100 241.099 C 150.814 240.860,150.804 223.935,150.090 223.697 C 149.777 223.592,149.594 222.643,149.583 221.067 C 149.573 219.710,149.382 217.790,149.158 216.800 C 148.934 215.810,148.651 214.505,148.530 213.900 C 148.409 213.295,148.169 212.800,147.998 212.800 C 147.827 212.800,147.576 212.357,147.440 211.815 C 147.181 210.783,143.989 207.405,142.354 206.432 C 141.709 206.048,139.717 205.812,136.200 205.700 C 132.899 205.596,130.540 205.329,129.740 204.968 C 129.046 204.656,128.212 204.400,127.885 204.400 C 127.559 204.400,126.776 204.131,126.146 203.802 C 125.516 203.474,124.595 203.204,124.100 203.202 C 123.605 203.201,123.200 203.022,123.200 202.805 C 123.200 202.587,122.491 202.296,121.625 202.158 C 120.758 202.019,119.954 201.657,119.837 201.353 C 119.721 201.049,119.169 200.800,118.613 200.800 C 118.056 200.800,117.600 200.620,117.600 200.400 C 117.600 200.180,117.071 200.000,116.424 200.000 C 115.777 200.000,115.136 199.820,115.000 199.600 C 114.864 199.380,113.773 199.200,112.576 199.200 C 111.379 199.200,110.400 199.380,110.400 199.600 C 110.400 199.820,109.860 200.000,109.200 200.000 C 108.540 200.000,108.000 200.139,108.000 200.309 C 108.000 201.422,100.842 201.503,100.467 200.394 C 100.393 200.177,99.976 200.000,99.540 200.000 C 99.104 200.000,98.410 199.820,97.998 199.599 C 97.497 199.331,97.166 199.331,97.001 199.599 M115.555 201.383 C 117.756 201.969,122.644 203.886,123.444 204.476 C 124.700 205.405,128.244 206.076,132.800 206.249 C 141.974 206.596,147.578 210.565,147.596 216.726 C 147.598 217.456,147.814 218.446,148.075 218.926 C 148.335 219.407,148.770 222.230,149.039 225.200 C 149.309 228.170,149.662 231.732,149.823 233.116 C 150.000 234.630,149.948 236.224,149.692 237.116 C 149.459 237.932,149.089 239.230,148.870 240.000 C 148.652 240.770,147.815 243.020,147.011 245.000 C 144.332 251.599,143.194 254.596,143.197 255.038 C 143.199 255.279,142.840 255.802,142.400 256.200 C 141.960 256.598,141.600 257.166,141.600 257.461 C 141.600 257.757,140.970 259.207,140.200 260.683 C 139.430 262.160,138.800 263.770,138.800 264.261 C 138.800 264.751,138.637 265.254,138.437 265.377 C 137.952 265.677,136.918 269.190,136.374 272.383 C 136.133 273.804,135.705 275.424,135.424 275.983 C 134.240 278.341,133.085 284.356,133.584 285.562 C 134.555 287.906,131.947 291.200,129.119 291.200 C 127.064 291.200,125.997 289.221,126.065 285.534 C 126.101 283.576,125.872 282.474,125.056 280.689 C 124.475 279.417,124.000 278.016,124.000 277.575 C 124.000 277.133,123.756 276.373,123.458 275.886 C 123.159 275.399,122.609 273.821,122.235 272.379 C 121.416 269.226,117.560 264.718,115.247 264.210 C 113.768 263.886,111.326 265.225,110.164 266.999 C 109.803 267.550,109.289 268.000,109.020 268.000 C 108.752 268.000,107.680 268.900,106.639 270.000 C 102.830 274.023,97.690 272.331,95.707 266.400 C 94.915 264.032,93.600 257.166,93.600 255.400 C 93.600 253.431,92.228 247.810,91.458 246.626 C 91.163 246.172,90.705 245.139,90.440 244.332 C 90.176 243.525,89.706 242.654,89.398 242.398 C 88.764 241.872,85.600 235.422,85.600 234.657 C 85.600 234.384,85.450 233.989,85.266 233.780 C 84.013 232.354,83.434 229.228,83.417 223.800 L 83.400 218.200 84.954 215.087 C 85.809 213.375,87.024 211.325,87.654 210.532 C 88.284 209.739,88.800 208.952,88.800 208.784 C 88.800 208.289,91.307 205.600,91.774 205.595 C 92.008 205.592,93.081 204.586,94.157 203.358 C 96.321 200.892,97.021 200.773,101.000 202.194 C 103.355 203.034,105.501 202.919,108.200 201.808 C 110.962 200.670,112.534 200.579,115.555 201.383 M340.262 224.731 C 339.898 225.134,339.600 225.674,339.600 225.931 C 339.600 226.189,339.434 226.400,339.232 226.400 C 339.029 226.400,338.745 226.940,338.600 227.600 C 338.455 228.260,338.173 228.800,337.973 228.800 C 337.773 228.800,337.494 229.520,337.354 230.400 C 337.213 231.280,336.961 232.000,336.794 232.000 C 336.490 232.000,336.032 233.809,335.907 235.500 C 335.870 235.995,335.716 236.400,335.565 236.400 C 335.282 236.400,335.159 236.869,334.335 241.100 C 334.067 242.475,333.713 243.600,333.548 243.600 C 333.383 243.600,333.124 244.860,332.973 246.400 C 332.821 247.940,332.563 249.200,332.400 249.200 C 332.237 249.200,331.976 250.998,331.820 253.196 C 331.664 255.394,331.371 257.294,331.168 257.420 C 329.987 258.150,331.149 263.949,332.809 265.609 C 333.652 266.452,338.905 266.801,339.372 266.045 C 339.493 265.850,340.223 265.572,340.996 265.427 C 341.768 265.282,342.400 265.011,342.400 264.825 C 342.400 264.639,342.850 264.374,343.400 264.236 C 343.950 264.098,344.400 263.808,344.400 263.592 C 344.400 263.377,344.641 263.200,344.936 263.200 C 346.066 263.200,351.076 258.432,351.431 257.019 C 351.572 256.459,351.847 256.000,352.043 256.000 C 352.240 256.000,352.400 255.802,352.400 255.560 C 352.400 255.319,352.654 254.554,352.964 253.860 C 353.934 251.690,354.119 250.366,354.283 244.441 C 354.386 240.731,354.293 238.533,354.021 238.261 C 353.790 238.030,353.600 237.336,353.600 236.720 C 353.600 236.104,353.428 235.600,353.218 235.600 C 353.008 235.600,352.718 234.970,352.574 234.200 C 352.429 233.430,352.171 232.800,352.000 232.800 C 351.829 232.800,351.574 232.187,351.434 231.439 C 351.293 230.690,350.913 229.976,350.589 229.851 C 350.265 229.727,350.000 229.419,350.000 229.166 C 350.000 228.781,347.702 226.439,345.422 224.500 C 344.492 223.709,341.047 223.864,340.262 224.731 M347.501 228.389 C 348.876 229.825,350.117 231.450,350.258 232.000 C 350.400 232.550,351.057 234.080,351.720 235.400 C 353.358 238.663,353.639 249.549,352.149 252.000 C 351.680 252.770,351.072 254.104,350.796 254.965 C 348.887 260.930,336.715 267.391,333.836 263.969 C 332.679 262.594,332.291 254.638,333.233 251.597 C 333.471 250.829,333.922 248.760,334.236 247.000 C 334.789 243.901,335.796 240.117,337.057 236.400 C 337.393 235.410,338.204 232.943,338.860 230.918 C 341.070 224.095,342.880 223.565,347.501 228.389 " stroke="none" fill="#04ec7d" fill-rule="evenodd"></path></g></svg>