<?xml version="1.0" encoding="UTF-8" ?>
<!DOCTYPE svg PUBLIC "-//W3C//DTD SVG 1.1//EN" "http://www.w3.org/Graphics/SVG/1.1/DTD/svg11.dtd">
<svg width="114pt" height="57pt" viewBox="0 0 114 57" version="1.1" xmlns="http://www.w3.org/2000/svg">
<g id="#08170ea0">
<path fill="#08170e" opacity="0.63" d=" M 0.00 0.00 L 0.15 0.00 C 0.11 0.04 0.04 0.12 0.00 0.15 L 0.00 0.00 Z" />
<path fill="#08170e" opacity="0.63" d=" M 59.36 6.09 C 60.15 4.26 64.11 4.30 64.85 6.19 C 63.02 6.24 61.18 6.31 59.36 6.09 Z" />
<path fill="#08170e" opacity="0.63" d=" M 54.26 14.31 C 54.29 10.85 55.85 7.24 59.36 6.09 C 58.11 7.72 56.92 9.38 55.81 11.11 C 55.19 12.03 54.71 13.01 54.36 14.07 L 54.26 14.31 Z" />
<path fill="#08170e" opacity="0.63" d=" M 64.85 6.19 C 65.32 6.30 66.25 6.52 66.72 6.62 L 66.04 7.11 L 65.22 6.84 L 64.85 6.19 Z" />
<path fill="#08170e" opacity="0.63" d=" M 31.34 10.91 C 31.36 7.71 36.27 5.72 38.25 8.39 L 37.89 8.38 C 35.21 7.64 33.06 9.02 31.34 10.91 Z" />
<path fill="#08170e" opacity="0.63" d=" M 40.14 14.05 C 41.54 10.19 45.23 6.92 49.57 8.46 C 55.69 15.06 48.21 24.57 54.54 31.37 L 54.68 31.92 C 54.85 32.58 55.20 33.91 55.37 34.58 C 56.76 36.23 57.45 38.27 58.27 40.24 C 60.37 40.08 60.45 37.57 61.35 36.12 C 63.05 35.65 64.75 35.19 66.45 34.74 C 65.98 36.08 65.52 37.42 65.08 38.77 C 66.92 38.59 67.52 36.91 68.19 35.47 C 69.39 35.33 70.58 35.18 71.77 35.03 C 74.70 29.17 72.49 23.15 66.93 19.96 L 67.97 20.33 C 71.07 21.10 73.27 23.56 74.65 26.31 C 75.47 21.73 76.32 17.13 77.70 12.68 C 79.56 8.44 85.35 8.52 88.97 10.09 C 86.59 9.98 84.19 10.01 81.86 10.54 C 74.13 17.20 74.16 32.68 83.26 38.56 C 85.67 38.31 88.09 38.46 90.46 38.96 L 89.83 39.60 C 81.64 42.08 77.02 34.67 74.95 28.05 C 73.54 32.44 72.71 37.08 67.76 38.75 C 65.34 41.60 64.60 36.86 62.31 37.03 C 61.70 39.56 60.11 41.60 57.24 41.03 C 55.61 37.99 54.04 34.88 53.60 31.40 C 52.21 34.24 50.90 37.12 49.34 39.88 C 48.76 39.83 47.61 39.74 47.04 39.69 C 47.55 38.96 48.13 38.30 48.66 37.58 C 51.60 34.96 52.83 30.77 51.24 27.07 C 50.86 23.63 50.85 20.17 50.69 16.72 C 50.64 15.02 50.34 13.35 50.04 11.69 C 50.05 9.20 46.97 7.92 45.13 9.50 C 42.72 10.95 41.62 13.56 40.59 16.04 C 40.01 15.36 39.43 14.68 38.85 14.01 C 39.64 12.87 39.60 11.71 38.71 10.53 L 38.33 8.79 L 38.25 8.39 C 40.82 8.99 39.74 12.12 40.14 14.05 Z" />
<path fill="#08170e" opacity="0.63" d=" M 88.97 10.09 C 91.51 11.22 93.39 13.33 94.22 15.97 L 92.92 15.85 C 92.14 14.79 91.38 13.72 90.62 12.65 C 90.56 12.56 90.44 12.39 90.38 12.31 C 90.03 11.75 89.33 10.65 88.97 10.09 Z" />
<path fill="#08170e" opacity="0.63" d=" M 29.95 20.76 C 29.56 17.55 29.98 13.91 31.34 10.91 C 31.42 14.56 30.64 18.15 30.46 21.78 C 30.33 21.53 30.08 21.01 29.95 20.76 Z" />
<path fill="#08170e" opacity="0.63" d=" M 62.80 24.53 L 63.43 24.56 C 64.25 25.16 64.80 25.92 65.09 26.86 C 63.82 27.77 61.78 25.81 62.80 24.53 Z" />
<path fill="#08170e" opacity="0.63" d=" M 95.50 33.55 C 95.52 33.52 95.56 33.46 95.58 33.44 C 95.56 33.46 95.52 33.52 95.50 33.55 Z" />
</g>
<g id="#26613ed5">
<path fill="#26613e" opacity="0.84" d=" M 59.36 6.09 C 61.18 6.31 63.02 6.24 64.85 6.19 L 65.22 6.84 C 61.25 5.45 58.28 8.51 55.81 11.11 C 56.92 9.38 58.11 7.72 59.36 6.09 Z" />
<path fill="#26613e" opacity="0.84" d=" M 66.04 7.11 L 66.72 6.62 C 67.03 6.97 67.65 7.66 67.95 8.01 C 67.48 7.78 66.52 7.34 66.04 7.11 Z" />
<path fill="#26613e" opacity="0.84" d=" M 54.36 14.07 C 54.71 13.01 55.19 12.03 55.81 11.11 C 56.32 12.63 56.31 14.25 56.04 15.82 C 55.62 15.38 54.78 14.50 54.36 14.07 Z" />
</g>
<g id="#00dd59ff">
<path fill="#00dd59" opacity="1.00" d=" M 55.81 11.11 C 58.28 8.51 61.25 5.45 65.22 6.84 L 66.04 7.11 C 66.52 7.34 67.48 7.78 67.95 8.01 C 68.35 8.11 69.14 8.33 69.53 8.43 C 70.03 10.64 70.86 12.92 70.27 15.21 C 67.58 15.99 65.86 13.07 63.92 11.73 C 61.57 15.11 62.76 19.11 66.93 19.96 C 72.49 23.15 74.70 29.17 71.77 35.03 C 70.58 35.18 69.39 35.33 68.19 35.47 C 67.52 36.91 66.92 38.59 65.08 38.77 C 65.52 37.42 65.98 36.08 66.45 34.74 C 64.75 35.19 63.05 35.65 61.35 36.12 C 60.45 37.57 60.37 40.08 58.27 40.24 C 57.45 38.27 56.76 36.23 55.37 34.58 C 55.20 33.91 54.85 32.58 54.68 31.92 C 57.79 29.26 62.07 30.11 65.83 29.61 C 65.58 28.69 65.34 27.78 65.09 26.86 C 64.80 25.92 64.25 25.16 63.43 24.56 C 61.03 22.17 58.46 19.95 55.89 17.75 C 55.92 17.27 56.00 16.30 56.04 15.82 C 56.31 14.25 56.32 12.63 55.81 11.11 Z" />
<path fill="#00dd59" opacity="1.00" d=" M 31.34 10.91 C 33.06 9.02 35.21 7.64 37.89 8.38 C 38.00 8.48 38.22 8.69 38.33 8.79 L 38.71 10.53 C 37.87 11.78 37.92 12.94 38.85 14.01 C 39.43 14.68 40.01 15.36 40.59 16.04 C 41.62 13.56 42.72 10.95 45.13 9.50 C 46.66 10.43 48.32 11.18 50.04 11.69 C 50.34 13.35 50.64 15.02 50.69 16.72 C 49.86 20.18 49.52 23.81 51.24 27.07 C 52.83 30.77 51.60 34.96 48.66 37.58 C 46.94 37.00 45.19 36.47 43.44 36.00 C 43.16 34.35 43.03 32.68 42.93 31.01 C 44.07 30.06 44.59 28.57 44.13 27.14 C 43.97 24.57 43.95 22.01 43.77 19.45 C 43.09 20.03 42.63 20.74 42.38 21.55 C 42.27 22.16 42.04 23.37 41.92 23.98 C 41.61 24.58 41.00 25.78 40.69 26.38 C 40.46 25.14 39.84 24.06 39.14 23.04 L 38.95 22.09 C 38.86 21.38 38.68 19.97 38.59 19.26 L 37.83 19.20 L 37.02 19.14 L 36.16 19.07 C 36.19 25.18 35.81 31.29 36.37 37.39 C 36.21 38.74 36.06 40.09 35.90 41.44 C 35.14 39.40 34.34 37.36 33.19 35.51 C 33.11 36.07 32.96 37.19 32.89 37.75 C 32.70 39.14 32.52 40.53 32.35 41.92 L 32.20 41.84 C 31.71 41.58 30.74 41.07 30.26 40.81 C 29.97 38.81 29.66 36.82 29.33 34.84 C 28.97 34.40 28.25 33.52 27.89 33.08 C 28.24 30.64 28.77 28.23 29.36 25.83 C 30.03 24.58 30.54 23.23 30.46 21.78 C 30.64 18.15 31.42 14.56 31.34 10.91 Z" />
<path fill="#00dd59" opacity="1.00" d=" M 83.26 38.56 C 74.16 32.68 74.13 17.20 81.86 10.54 C 84.79 10.50 87.72 11.01 90.38 12.31 C 90.44 12.39 90.56 12.56 90.62 12.65 C 91.38 13.72 92.14 14.79 92.92 15.85 C 91.74 17.30 90.61 18.80 89.59 20.37 C 88.41 19.04 87.17 17.77 85.93 16.51 C 85.66 16.91 85.14 17.71 84.87 18.10 C 83.39 19.67 83.58 21.88 83.88 23.84 C 84.06 26.66 83.50 30.19 86.37 31.89 C 90.51 33.38 91.22 24.34 95.34 27.63 C 97.82 28.94 96.60 31.58 95.58 33.44 C 95.56 33.46 95.52 33.52 95.50 33.55 C 93.79 35.33 92.14 37.16 90.46 38.96 C 88.09 38.46 85.67 38.31 83.26 38.56 Z" />
</g>
<g id="#2ec069fb">
<path fill="#2ec069" opacity="1.00" d=" M 37.89 8.38 L 38.25 8.39 L 38.33 8.79 C 38.22 8.69 38.00 8.48 37.89 8.38 Z" />
<path fill="#2ec069" opacity="1.00" d=" M 38.71 10.53 C 39.60 11.71 39.64 12.87 38.85 14.01 C 37.92 12.94 37.87 11.78 38.71 10.53 Z" />
</g>
<g id="#2bbf67f8">
<path fill="#2bbf67" opacity="0.97" d=" M 45.13 9.50 C 46.97 7.92 50.05 9.20 50.04 11.69 C 48.32 11.18 46.66 10.43 45.13 9.50 Z" />
</g>
<g id="#0a2214a8">
<path fill="#0a2214" opacity="0.66" d=" M 69.53 8.43 C 71.24 10.34 73.15 13.72 70.86 15.90 C 68.44 18.29 65.89 14.64 63.71 13.64 C 63.04 16.90 65.94 18.46 67.97 20.33 L 66.93 19.96 C 62.76 19.11 61.57 15.11 63.92 11.73 C 65.86 13.07 67.58 15.99 70.27 15.21 C 70.86 12.92 70.03 10.64 69.53 8.43 Z" />
</g>
<g id="#287b4add">
<path fill="#287b4a" opacity="0.87" d=" M 81.86 10.54 C 84.19 10.01 86.59 9.98 88.97 10.09 C 89.33 10.65 90.03 11.75 90.38 12.31 C 87.72 11.01 84.79 10.50 81.86 10.54 Z" />
<path fill="#287b4a" opacity="0.87" d=" M 90.38 12.31 C 90.44 12.39 90.56 12.56 90.62 12.65 C 90.56 12.56 90.44 12.39 90.38 12.31 Z" />
</g>
<g id="#0106039e">
<path fill="#010603" opacity="0.62" d=" M 54.26 14.31 L 54.36 14.07 C 54.78 14.50 55.62 15.38 56.04 15.82 C 56.00 16.30 55.92 17.27 55.89 17.75 L 55.89 18.45 C 54.22 18.77 53.54 15.59 54.26 14.31 Z" />
</g>
<g id="#1c3727c1">
<path fill="#1c3727" opacity="0.76" d=" M 92.92 15.85 L 94.22 15.97 C 92.89 18.20 91.68 20.67 89.32 21.98 L 89.47 21.10 L 89.59 20.37 C 90.61 18.80 91.74 17.30 92.92 15.85 Z" />
</g>
<g id="#30a55ff5">
<path fill="#30a55f" opacity="0.96" d=" M 51.24 27.07 C 49.52 23.81 49.86 20.18 50.69 16.72 C 50.85 20.17 50.86 23.63 51.24 27.07 Z" />
</g>
<g id="#041009a0">
<path fill="#041009" opacity="0.63" d=" M 84.87 18.10 C 85.14 17.71 85.66 16.91 85.93 16.51 C 87.17 17.77 88.41 19.04 89.59 20.37 L 89.47 21.10 C 88.31 20.26 87.16 19.43 86.02 18.59 C 86.55 23.02 82.63 28.93 87.98 31.52 C 89.34 29.18 90.56 25.45 93.97 25.95 C 97.99 25.90 99.28 31.77 95.58 33.44 C 96.60 31.58 97.82 28.94 95.34 27.63 C 91.22 24.34 90.51 33.38 86.37 31.89 C 83.50 30.19 84.06 26.66 83.88 23.84 C 85.74 22.49 85.31 20.04 84.87 18.10 Z" />
</g>
<g id="#24673fe0">
<path fill="#24673f" opacity="0.88" d=" M 55.89 17.75 C 58.46 19.95 61.03 22.17 63.43 24.56 L 62.80 24.53 C 60.14 23.16 57.38 21.08 55.89 18.45 L 55.89 17.75 Z" />
</g>
<g id="#23a156d3">
<path fill="#23a156" opacity="0.83" d=" M 83.88 23.84 C 83.58 21.88 83.39 19.67 84.87 18.10 C 85.31 20.04 85.74 22.49 83.88 23.84 Z" />
</g>
<g id="#2cad60e7">
<path fill="#2cad60" opacity="0.91" d=" M 36.16 19.07 L 37.02 19.14 C 36.89 25.22 37.41 31.36 36.37 37.39 C 35.81 31.29 36.19 25.18 36.16 19.07 Z" />
</g>
<g id="#0509079e">
<path fill="#050907" opacity="0.62" d=" M 37.02 19.14 L 37.83 19.20 C 37.36 20.42 37.73 21.38 38.95 22.09 L 39.14 23.04 C 38.60 24.43 38.40 27.90 40.79 27.10 C 42.23 26.58 42.61 25.54 41.92 23.98 C 42.04 23.37 42.27 22.16 42.38 21.55 C 42.70 23.34 43.10 25.12 43.49 26.89 C 42.84 28.20 42.65 29.57 42.93 31.01 C 43.03 32.68 43.16 34.35 43.44 36.00 L 43.89 36.99 C 40.09 36.75 42.78 30.83 42.29 28.13 C 40.79 28.40 39.28 28.49 37.77 28.31 C 37.74 32.83 38.00 37.43 36.80 41.84 C 36.18 41.84 34.95 41.83 34.34 41.83 C 33.82 40.48 33.28 39.14 32.89 37.75 C 32.96 37.19 33.11 36.07 33.19 35.51 C 34.34 37.36 35.14 39.40 35.90 41.44 C 36.06 40.09 36.21 38.74 36.37 37.39 C 37.41 31.36 36.89 25.22 37.02 19.14 Z" />
</g>
<g id="#34bc6bfd">
<path fill="#34bc6b" opacity="1.00" d=" M 37.83 19.20 L 38.59 19.26 C 38.68 19.97 38.86 21.38 38.95 22.09 C 37.73 21.38 37.36 20.42 37.83 19.20 Z" />
</g>
<g id="#184129d7">
<path fill="#184129" opacity="0.84" d=" M 42.38 21.55 C 42.63 20.74 43.09 20.03 43.77 19.45 C 43.95 22.01 43.97 24.57 44.13 27.14 L 43.49 26.89 C 43.10 25.12 42.70 23.34 42.38 21.55 Z" />
</g>
<g id="#2c834fe8">
<path fill="#2c834f" opacity="0.91" d=" M 28.77 24.14 C 28.33 22.60 28.73 21.48 29.95 20.76 C 30.08 21.01 30.33 21.53 30.46 21.78 C 30.54 23.23 30.03 24.58 29.36 25.83 C 29.21 25.41 28.91 24.56 28.77 24.14 Z" />
</g>
<g id="#24d46bff">
<path fill="#24d46b" opacity="1.00" d=" M 39.14 23.04 C 39.84 24.06 40.46 25.14 40.69 26.38 L 40.79 27.10 C 38.40 27.90 38.60 24.43 39.14 23.04 Z" />
</g>
<g id="#09180fad">
<path fill="#09180f" opacity="0.68" d=" M 29.32 41.92 C 28.19 36.04 25.20 29.86 28.77 24.14 C 28.91 24.56 29.21 25.41 29.36 25.83 C 28.77 28.23 28.24 30.64 27.89 33.08 C 28.25 33.52 28.97 34.40 29.33 34.84 C 29.66 36.82 29.97 38.81 30.26 40.81 C 30.74 41.07 31.71 41.58 32.20 41.84 C 31.48 41.86 30.04 41.90 29.32 41.92 Z" />
</g>
<g id="#1a422aca">
<path fill="#1a422a" opacity="0.79" d=" M 40.69 26.38 C 41.00 25.78 41.61 24.58 41.92 23.98 C 42.61 25.54 42.23 26.58 40.79 27.10 L 40.69 26.38 Z" />
</g>
<g id="#309359e8">
<path fill="#309359" opacity="0.91" d=" M 43.49 26.89 L 44.13 27.14 C 44.59 28.57 44.07 30.06 42.93 31.01 C 42.65 29.57 42.84 28.20 43.49 26.89 Z" />
</g>
<g id="#163924d2">
<path fill="#163924" opacity="0.82" d=" M 65.09 26.86 C 65.34 27.78 65.58 28.69 65.83 29.61 C 62.07 30.11 57.79 29.26 54.68 31.92 L 54.54 31.37 C 55.68 24.74 63.50 31.98 65.09 26.86 Z" />
</g>
<g id="#33be6bfb">
<path fill="#33be6b" opacity="1.00" d=" M 27.89 33.08 C 28.25 33.52 28.97 34.40 29.33 34.84 C 28.97 34.40 28.25 33.52 27.89 33.08 Z" />
</g>
<g id="#07130c97">
<path fill="#07130c" opacity="0.59" d=" M 90.46 38.96 C 92.14 37.16 93.79 35.33 95.50 33.55 C 94.20 35.97 93.27 39.78 89.83 39.60 L 90.46 38.96 Z" />
</g>
<g id="#1b432bbb">
<path fill="#1b432b" opacity="0.73" d=" M 43.44 36.00 C 45.19 36.47 46.94 37.00 48.66 37.58 C 48.13 38.30 47.55 38.96 47.04 39.69 L 46.67 40.25 C 46.45 39.54 46.01 38.13 45.79 37.43 C 45.32 37.32 44.36 37.10 43.89 36.99 L 43.44 36.00 Z" />
</g>
</svg>
